<?xml version="1.0" encoding="utf-8"?>
<!-- Generator: Adobe Illustrator 24.3.0, SVG Export Plug-In . SVG Version: 6.00 Build 0)  -->
<svg version="1.1" id="Layer_1" xmlns="http://www.w3.org/2000/svg" xmlns:xlink="http://www.w3.org/1999/xlink" x="0px" y="0px"
	 viewBox="0 0 1231.58 233.3" style="enable-background:new 0 0 1231.58 233.3;" xml:space="preserve">
<g>
	<g>
		<g>
			<linearGradient id="SVGID_1_" gradientUnits="userSpaceOnUse" x1="553.9221" y1="131.0603" x2="1316.338" y2="151.3772">
				<stop  offset="0" style="stop-color:#8DC73F"/>
				<stop  offset="1" style="stop-color:#03ACB3"/>
			</linearGradient>
			<path style="fill:url(#SVGID_1_);" d="M663.6,158.54c-3.73,4.12-7.3,6.93-10.71,8.45c-3.4,1.51-7.54,2.27-12.41,2.27
				c-4.68,0-8.9-0.82-12.66-2.45c-3.76-1.63-7.01-4.03-9.75-7.21c-2.74-3.17-4.82-7-6.24-11.5c-1.42-4.5-2.13-9.42-2.13-14.77
				c0-7.43,1.24-13.82,3.72-19.17c2.48-5.35,6.04-9.47,10.67-12.35c4.63-2.89,10.09-4.33,16.38-4.33c5.01,0,9.21,0.77,12.58,2.31
				c3.38,1.54,6.89,4.34,10.53,8.41l-5.11,4.69c-1.94-2.22-3.83-3.99-5.68-5.29c-1.85-1.3-3.73-2.22-5.64-2.77
				c-1.92-0.54-4.15-0.82-6.71-0.82c-8.09,0-14.29,3.1-18.6,9.3c-1.7,2.46-2.92,5.27-3.66,8.41c-0.73,3.15-1.1,7.02-1.1,11.61
				c0,4.59,0.35,8.44,1.06,11.54c0.71,3.1,1.94,5.95,3.69,8.55c4.31,6.2,10.51,9.3,18.6,9.3c3.69,0,6.89-0.65,9.58-1.95
				c2.7-1.3,5.51-3.61,8.45-6.92L663.6,158.54z"/>
			<linearGradient id="SVGID_2_" gradientUnits="userSpaceOnUse" x1="554.3998" y1="113.1357" x2="1316.8157" y2="133.4525">
				<stop  offset="0" style="stop-color:#8DC73F"/>
				<stop  offset="1" style="stop-color:#03ACB3"/>
			</linearGradient>
			<path style="fill:url(#SVGID_2_);" d="M736.44,168.4h-7.38v-43.45c0-6.77-1.66-11.95-4.97-15.55c-3.31-3.6-8.09-5.4-14.34-5.4
				c-4.17,0-7.73,0.82-10.68,2.45c-2.96,1.63-5.22,4.02-6.78,7.17c-1.56,3.15-2.34,6.92-2.34,11.32v43.45h-7.38V64.89h7.38v41.74
				c5.25-6.11,12.14-9.16,20.66-9.16c5.21,0,9.77,1.05,13.7,3.16c3.93,2.11,6.93,5.12,9.02,9.05c2.08,3.93,3.12,8.57,3.12,13.92
				V168.4z"/>
			<linearGradient id="SVGID_3_" gradientUnits="userSpaceOnUse" x1="554.0422" y1="126.5535" x2="1316.458" y2="146.8703">
				<stop  offset="0" style="stop-color:#8DC73F"/>
				<stop  offset="1" style="stop-color:#03ACB3"/>
			</linearGradient>
			<path style="fill:url(#SVGID_3_);" d="M848.33,98.33L825.9,168.4h-7.53l-19.81-58.43l-19.74,58.43h-7.6l-22.36-70.07h8.09
				l17.89,61.34l20.09-61.34h7.24l20.09,61.34l17.89-61.34H848.33z"/>
			<linearGradient id="SVGID_4_" gradientUnits="userSpaceOnUse" x1="554.0966" y1="124.5139" x2="1316.5125" y2="144.8307">
				<stop  offset="0" style="stop-color:#8DC73F"/>
				<stop  offset="1" style="stop-color:#03ACB3"/>
			</linearGradient>
			<path style="fill:url(#SVGID_4_);" d="M913.58,134.97h-48.7c0,8.9,1.95,15.73,5.86,20.48s9.55,7.13,16.93,7.13
				c4.07,0,7.55-0.64,10.44-1.92c2.89-1.28,5.87-3.45,8.95-6.53l5.54,4.4c-3.73,3.74-7.5,6.46-11.31,8.16
				c-3.8,1.7-8.47,2.56-14,2.56c-6.43,0-11.85-1.36-16.27-4.08c-4.42-2.72-7.78-6.76-10.07-12.1c-2.29-5.35-3.44-11.93-3.44-19.74
				c0-5.68,0.64-10.73,1.92-15.16c1.28-4.42,3.11-8.15,5.49-11.18c2.39-3.03,5.35-5.37,8.9-7.03c3.54-1.66,7.47-2.48,11.77-2.48
				c4.4,0,8.3,0.76,11.7,2.27c3.4,1.52,6.33,3.75,8.79,6.71c2.46,2.96,4.33,6.54,5.6,10.76c1.28,4.21,1.91,9.02,1.91,14.41V134.97z
				 M906.13,129c-0.14-3.45-0.35-5.95-0.64-7.49c-0.28-1.54-0.88-3.44-1.77-5.71c-1.47-3.6-3.88-6.46-7.24-8.59
				c-3.36-2.13-7.01-3.19-10.93-3.19c-4.02,0-7.67,1.05-10.93,3.16c-3.27,2.11-5.68,4.98-7.24,8.63c-0.9,2.27-1.5,4.26-1.81,5.96
				c-0.31,1.7-0.53,4.12-0.67,7.24H906.13z"/>
			<linearGradient id="SVGID_5_" gradientUnits="userSpaceOnUse" x1="554.146" y1="122.6593" x2="1316.5619" y2="142.9761">
				<stop  offset="0" style="stop-color:#8DC73F"/>
				<stop  offset="1" style="stop-color:#03ACB3"/>
			</linearGradient>
			<path style="fill:url(#SVGID_5_);" d="M984.22,148.45c0,4.21-1.15,7.89-3.45,11.04c-2.3,3.15-5.57,5.56-9.81,7.24
				c-4.24,1.68-9.18,2.52-14.82,2.52c-11.94,0-21.42-3.34-28.43-10.01l5.13-5.11c5.45,5.73,13.12,8.59,23.03,8.59
				c6.82,0,12.05-1.19,15.67-3.58c3.63-2.39,5.44-5.95,5.44-10.69c0-3.6-1.09-6.34-3.27-8.24c-2.18-1.89-5.56-3.05-10.15-3.48
				l-11.64-1.06c-14.1-1.14-21.16-7.24-21.16-18.32c0-3.98,1.03-7.47,3.09-10.47c2.06-3,4.99-5.32,8.78-6.96s8.25-2.45,13.37-2.45
				c4.93,0,9.5,0.65,13.72,1.95c4.22,1.3,7.84,3.11,10.88,5.43l-4.97,4.97c-5.4-3.98-11.93-5.96-19.59-5.96
				c-5.78,0-10.2,1.18-13.28,3.55c-3.08,2.37-4.61,5.68-4.61,9.94c0,3.69,1.15,6.47,3.44,8.34c2.3,1.87,5.9,3.02,10.83,3.44
				l11.29,0.99c6.53,0.57,11.58,2.18,15.16,4.83C982.44,137.62,984.22,142.11,984.22,148.45z"/>
			<linearGradient id="SVGID_6_" gradientUnits="userSpaceOnUse" x1="554.4882" y1="109.8172" x2="1316.9041" y2="130.134">
				<stop  offset="0" style="stop-color:#8DC73F"/>
				<stop  offset="1" style="stop-color:#03ACB3"/>
			</linearGradient>
			<path style="fill:url(#SVGID_6_);" d="M1028.6,168.4h-6.37c-3.54,0-6.58-0.78-9.13-2.34c-2.55-1.56-4.47-3.71-5.77-6.46
				c-1.3-2.74-1.95-5.92-1.95-9.51v-46.22h-9.58v-5.54h9.58V75.9h7.38v22.43h15.83v5.54h-15.83v46.36c0,7.76,3.57,11.64,10.72,11.64
				h5.11V168.4z"/>
			<linearGradient id="SVGID_7_" gradientUnits="userSpaceOnUse" x1="554.2289" y1="119.5492" x2="1316.6448" y2="139.866">
				<stop  offset="0" style="stop-color:#8DC73F"/>
				<stop  offset="1" style="stop-color:#03ACB3"/>
			</linearGradient>
			<path style="fill:url(#SVGID_7_);" d="M1100.02,134.97h-48.7c0,8.9,1.95,15.73,5.86,20.48s9.55,7.13,16.93,7.13
				c4.07,0,7.55-0.64,10.44-1.92c2.89-1.28,5.87-3.45,8.95-6.53l5.54,4.4c-3.73,3.74-7.5,6.46-11.31,8.16
				c-3.8,1.7-8.47,2.56-14,2.56c-6.43,0-11.85-1.36-16.27-4.08c-4.42-2.72-7.78-6.76-10.07-12.1c-2.29-5.35-3.44-11.93-3.44-19.74
				c0-5.68,0.64-10.73,1.92-15.16c1.28-4.42,3.11-8.15,5.49-11.18c2.39-3.03,5.35-5.37,8.9-7.03c3.54-1.66,7.47-2.48,11.77-2.48
				c4.4,0,8.3,0.76,11.7,2.27c3.4,1.52,6.33,3.75,8.79,6.71c2.46,2.96,4.33,6.54,5.6,10.76c1.28,4.21,1.91,9.02,1.91,14.41V134.97z
				 M1092.57,129c-0.14-3.45-0.35-5.95-0.64-7.49c-0.28-1.54-0.88-3.44-1.77-5.71c-1.47-3.6-3.88-6.46-7.24-8.59
				c-3.36-2.13-7.01-3.19-10.93-3.19c-4.02,0-7.67,1.05-10.93,3.16c-3.27,2.11-5.68,4.98-7.24,8.63c-0.9,2.27-1.5,4.26-1.81,5.96
				c-0.31,1.7-0.53,4.12-0.67,7.24H1092.57z"/>
			<linearGradient id="SVGID_8_" gradientUnits="userSpaceOnUse" x1="554.2845" y1="117.4597" x2="1316.7318" y2="137.7774">
				<stop  offset="0" style="stop-color:#8DC73F"/>
				<stop  offset="1" style="stop-color:#03ACB3"/>
			</linearGradient>
			<path style="fill:url(#SVGID_8_);" d="M1165.84,104.15l-5.32,5.4c-2.18-2.18-4.19-3.64-6.03-4.4c-1.85-0.76-4.26-1.14-7.24-1.14
				c-2.84,0-5.46,0.56-7.84,1.67c-2.39,1.11-4.4,2.66-6.03,4.65s-2.85,4.24-3.66,6.74c-0.81,2.51-1.21,5.23-1.21,8.16v43.17h-7.38
				V98.33h7.38v9.3c2.03-3.22,4.92-5.72,8.66-7.49c3.74-1.77,7.69-2.66,11.86-2.66c3.45,0,6.52,0.5,9.19,1.49
				C1160.88,99.97,1163.42,101.69,1165.84,104.15z"/>
			<linearGradient id="SVGID_9_" gradientUnits="userSpaceOnUse" x1="554.3248" y1="115.95" x2="1316.7406" y2="136.2668">
				<stop  offset="0" style="stop-color:#8DC73F"/>
				<stop  offset="1" style="stop-color:#03ACB3"/>
			</linearGradient>
			<path style="fill:url(#SVGID_9_);" d="M1231.58,168.4h-7.38v-43.45c0-6.77-1.66-11.95-4.97-15.55c-3.31-3.6-8.09-5.4-14.34-5.4
				c-4.17,0-7.73,0.82-10.68,2.45c-2.96,1.63-5.22,4.02-6.78,7.17c-1.56,3.15-2.34,6.92-2.34,11.32v43.45h-7.38V98.33h7.38v8.31
				c5.25-6.11,12.14-9.16,20.66-9.16c7.86,0,14.06,2.23,18.6,6.67c4.83,4.59,7.24,11.08,7.24,19.45V168.4z"/>
			<path style="fill:#292C2D;" d="M328.06,116.65c0,5.73-0.06,10.25-0.18,13.56c-0.12,3.31-0.51,6.71-1.17,10.19
				c-0.66,3.48-1.69,6.65-3.09,9.51c-1.4,2.86-3.35,5.55-5.86,8.06c-7.62,7.53-16.94,11.29-27.97,11.29
				c-5.73,0-10.87-0.95-15.44-2.84c-4.57-1.89-8.77-4.71-12.6-8.45c-3.22-3.31-5.55-6.97-6.99-10.97c-1.44-4-2.33-8.16-2.66-12.5
				c-0.33-4.33-0.5-10.28-0.5-17.86c0-7.57,0.17-13.52,0.5-17.85c0.33-4.33,1.22-8.5,2.66-12.5c1.44-4,3.77-7.66,6.99-10.97
				c3.83-3.74,8.03-6.55,12.6-8.45c4.57-1.89,9.71-2.84,15.44-2.84c11.03,0,20.35,3.76,27.97,11.29c3.17,3.27,5.51,6.91,7.03,10.93
				c1.51,4.02,2.44,8.2,2.77,12.53C327.9,103.12,328.06,109.08,328.06,116.65z M307.83,116.68c0-6.43-0.15-11.54-0.46-15.32
				c-0.31-3.78-0.81-6.62-1.49-8.51c-0.69-1.89-1.72-3.64-3.09-5.25c-1.37-1.66-3.21-2.99-5.5-4.01c-2.3-1.02-4.79-1.53-7.49-1.53
				c-2.56,0-4.99,0.5-7.31,1.49c-2.32,0.99-4.24,2.34-5.75,4.04c-1.37,1.61-2.39,3.35-3.05,5.21c-0.66,1.87-1.14,4.7-1.42,8.51
				c-0.28,3.81-0.43,8.93-0.43,15.35c0,6.43,0.14,11.54,0.43,15.32c0.28,3.78,0.76,6.62,1.42,8.51c0.66,1.89,1.68,3.64,3.05,5.25
				c3.17,3.64,7.53,5.46,13.06,5.46c5.49,0,9.82-1.82,12.99-5.46c1.37-1.61,2.4-3.37,3.09-5.28c0.69-1.91,1.18-4.74,1.49-8.48
				C307.68,128.27,307.83,123.16,307.83,116.68z"/>
			<path style="fill:#292C2D;" d="M376.49,168.4h-10.74c-7.3,0-12.83-2.12-16.58-6.35c-3.75-4.24-5.62-9.34-5.62-15.3V64.89h19.03
				v80.65c0,2.27,0.52,3.99,1.56,5.15c1.04,1.16,2.74,1.74,5.11,1.74h7.24V168.4z"/>
			<path style="fill:#292C2D;" d="M448.19,165.64c0,4.54-0.76,8.71-2.27,12.49c-1.52,3.79-3.73,7.09-6.65,9.9
				c-2.91,2.82-6.48,5.02-10.7,6.6c-4.22,1.59-8.79,2.38-13.72,2.38c-3.79,0-7.32-0.31-10.59-0.92c-3.27-0.62-6.27-1.63-8.99-3.05
				s-5.37-3.38-7.92-5.89l11.83-11.93c2.13,2.03,4.36,3.51,6.68,4.44c2.32,0.92,5.04,1.38,8.17,1.38c5.3,0,9.18-1.52,11.62-4.54
				c2.44-3.03,3.66-6.74,3.66-11.15v-7.74c-2.46,2.75-5.13,4.7-8,5.86c-2.87,1.16-6.22,1.74-10.06,1.74
				c-7.58,0-13.61-2.22-18.06-6.67c-1.71-1.8-3.07-3.7-4.09-5.72c-1.02-2.01-1.81-4.35-2.38-7.03c-0.57-2.67-0.93-5.41-1.07-8.2
				c-0.14-2.79-0.21-5.85-0.21-9.16c0-7.81,0.49-13.95,1.46-18.42s3.07-8.32,6.29-11.54c2.09-2.08,4.74-3.72,7.96-4.9
				c3.22-1.18,6.64-1.77,10.24-1.77c4.12,0,7.58,0.62,10.38,1.85c2.8,1.24,5.5,3.28,8.11,6.13v-7.13h18.32V165.64z M429.31,128.47
				c0-6.09-0.82-10.89-2.45-14.39s-4.98-5.24-10.05-5.24c-5.02,0-8.33,1.72-9.94,5.17c-1.61,3.45-2.41,8.27-2.41,14.46
				c0,3.92,0.27,7.3,0.82,10.13c0.54,2.84,1.74,5.14,3.59,6.91s4.5,2.66,7.95,2.66c5.06,0,8.41-1.76,10.05-5.28
				C428.49,139.37,429.31,134.56,429.31,128.47z"/>
			<path style="fill:#292C2D;" d="M523.81,168.4h-18.46v-6.53c-2.46,2.56-5.12,4.4-7.99,5.54c-2.86,1.14-6.4,1.7-10.61,1.7
				c-4.21,0-7.93-0.56-11.15-1.67c-3.22-1.11-5.94-2.78-8.16-5c-4.17-4.26-6.25-9.94-6.25-17.04c0-4.07,0.96-7.77,2.88-11.11
				c1.92-3.34,4.8-5.97,8.66-7.92c3.86-1.94,8.63-2.91,14.31-2.91h17.89v-3.76c0-4.21-1.1-7.25-3.3-9.12
				c-2.2-1.87-5.79-2.8-10.76-2.8c-3.6,0-6.4,0.45-8.41,1.35c-2.01,0.9-4.06,2.53-6.14,4.9l-12.07-11.79
				c3.5-3.93,7.31-6.65,11.43-8.16c4.12-1.51,9.42-2.27,15.9-2.27c10.6,0,18.62,2.25,24.07,6.74c5.44,4.5,8.16,11.17,8.16,20.02
				V168.4z M504.92,140.5v-4.12h-14.98c-3.36,0-5.96,0.76-7.81,2.27c-1.85,1.52-2.77,3.62-2.77,6.32c0,2.75,0.91,4.89,2.73,6.42
				c1.82,1.54,4.53,2.31,8.13,2.31c2.79,0,5.09-0.24,6.89-0.71c1.8-0.47,3.48-1.44,5.04-2.91C504,148.38,504.92,145.19,504.92,140.5
				z"/>
			<linearGradient id="SVGID_10_" gradientUnits="userSpaceOnUse" x1="553.8694" y1="133.0405" x2="1316.2852" y2="153.3574">
				<stop  offset="0" style="stop-color:#8DC73F"/>
				<stop  offset="1" style="stop-color:#03ACB3"/>
			</linearGradient>
			<path style="fill:url(#SVGID_10_);" d="M594.38,148.45c0,4.21-1.15,7.89-3.45,11.04c-2.3,3.15-5.57,5.56-9.81,7.24
				c-4.24,1.68-9.18,2.52-14.82,2.52c-11.94,0-21.42-3.34-28.43-10.01l5.13-5.11c5.45,5.73,13.12,8.59,23.03,8.59
				c6.82,0,12.05-1.19,15.67-3.58c3.63-2.39,5.44-5.95,5.44-10.69c0-3.6-1.09-6.34-3.27-8.24c-2.18-1.89-5.56-3.05-10.15-3.48
				l-11.64-1.06c-14.1-1.14-21.16-7.24-21.16-18.32c0-3.98,1.03-7.47,3.09-10.47c2.06-3,4.99-5.32,8.78-6.96s8.25-2.45,13.37-2.45
				c4.93,0,9.5,0.65,13.72,1.95c4.22,1.3,7.84,3.11,10.88,5.43l-4.97,4.97c-5.4-3.98-11.93-5.96-19.59-5.96
				c-5.78,0-10.2,1.18-13.28,3.55c-3.08,2.37-4.61,5.68-4.61,9.94c0,3.69,1.15,6.47,3.44,8.34c2.3,1.87,5.9,3.02,10.83,3.44
				l11.29,0.99c6.53,0.57,11.58,2.18,15.16,4.83C592.59,137.62,594.38,142.11,594.38,148.45z"/>
		</g>
		<g>
			<g>
				<g>
					<linearGradient id="SVGID_11_" gradientUnits="userSpaceOnUse" x1="59.2297" y1="9.9594" x2="163.3089" y2="240.9297">
						<stop  offset="0" style="stop-color:#8DC73F"/>
						<stop  offset="1" style="stop-color:#03ACB3"/>
					</linearGradient>
					<path style="fill:url(#SVGID_11_);" d="M205.33,112.7c-0.18,20.67-6.67,44.78-18.28,67.91c-4.41,8.8-9.45,17.17-14.91,24.85
						c-3.3,4.64-10.14,4.81-13.62,0.3c-0.04-0.05-0.07-0.09-0.11-0.14c-2.27-2.93-2.4-7.01-0.24-10.03
						c0.55-0.77,1.09-1.54,1.63-2.33c4.34-6.33,8.36-13.17,11.96-20.32c22.09-44,20.19-83.34,4.67-91.13
						c-2.09-1.05-4.48-1.56-7.11-1.56c-6.93,0-15.5,3.59-24.58,10.48c-6.63,5.03-13.11,11.55-19.19,19.11c0,0-0.06,0.07-0.17,0.22
						c-1.67,2.07-3.3,4.23-4.9,6.45c-0.34,0.48-0.65,0.98-0.91,1.5c-7.37,10.61-19.56,30-24.6,48.72c-1.01,3.76-4.55,6.23-8.43,6.01
						c-0.07,0-0.14-0.01-0.21-0.01c-5.31-0.3-9-5.43-7.46-10.53c3-9.91,7.02-19.98,11.99-29.88c0.01-0.03,0.03-0.06,0.04-0.08
						c2.37-4.74,1.15-10.45-2.94-13.82c-2.16-1.78-4.36-3.4-6.6-4.86c-11.54-7.49-22.29-9.42-30.27-5.41
						c-7.98,4-12.86,13.77-13.74,27.51c-1.02,15.91,2.79,32.02,10.4,46c7.9,14.51,20.89,24.57,30.64,37.66
						c2.93,3.93,2.01,9.72-2.09,12.48c-5.3,3.56-10.98,0.11-14.89-3.79C36.84,203.49,18,170.15,20.28,134.57
						c1.29-20.05,9.5-34.86,23.13-41.7c13.64-6.85,30.42-4.59,47.27,6.36c7.02,5.58,17.49,4.51,23.26-2.36
						c6.48-7.72,13.38-14.4,20.46-19.77c18.18-13.79,35.83-17.55,49.71-10.58C197.98,73.49,205.52,89.89,205.33,112.7z"/>
				</g>
				<g>
					<linearGradient id="SVGID_12_" gradientUnits="userSpaceOnUse" x1="16.7145" y1="29.1174" x2="120.7937" y2="260.0877">
						<stop  offset="0" style="stop-color:#8DC73F"/>
						<stop  offset="1" style="stop-color:#03ACB3"/>
					</linearGradient>
					<path style="fill:url(#SVGID_12_);" d="M27.63,28.13C12.9,29.07,1,40.97,0.06,55.71C-1.08,73.53,13.68,88.28,31.5,87.14
						C46.23,86.2,58.13,74.3,59.07,59.57C60.21,41.75,45.46,26.99,27.63,28.13z M29.57,70.1c-7.35,0-13.23-6.39-12.38-13.91
						c0.65-5.71,5.26-10.31,10.97-10.93c7.5-0.83,13.87,5.05,13.87,12.38C42.03,64.51,36.44,70.1,29.57,70.1z"/>
				</g>
				<g>
					<linearGradient id="SVGID_13_" gradientUnits="userSpaceOnUse" x1="165.9511" y1="-38.1311" x2="270.0303" y2="192.8392">
						<stop  offset="0" style="stop-color:#8DC73F"/>
						<stop  offset="1" style="stop-color:#03ACB3"/>
					</linearGradient>
					<path style="fill:url(#SVGID_13_);" d="M225.96,27.63C225.02,12.9,213.12,1,198.39,0.06c-17.82-1.14-32.58,13.62-31.44,31.44
						c0.94,14.73,12.84,26.63,27.58,27.57C212.35,60.21,227.1,45.46,225.96,27.63z M208.84,31.01c-0.65,5.72-5.26,10.31-10.98,10.94
						C190.36,42.77,184,36.9,184,29.57c0-6.87,5.58-12.46,12.46-12.46C203.8,17.11,209.69,23.5,208.84,31.01z"/>
				</g>
			</g>
			<g>
				<g>
					<linearGradient id="SVGID_14_" gradientUnits="userSpaceOnUse" x1="33.6375" y1="21.4916" x2="137.7167" y2="252.4619">
						<stop  offset="0" style="stop-color:#8DC73F"/>
						<stop  offset="1" style="stop-color:#03ACB3"/>
					</linearGradient>
					<path style="fill:url(#SVGID_14_);" d="M124.11,181.46v41.84c0,4.88-3.96,8.84-8.84,8.84h-0.23c-4.88,0-8.84-3.96-8.84-8.84
						v-41.84c0-4.89,3.96-8.84,8.84-8.84h0.23C120.14,172.61,124.11,176.57,124.11,181.46z"/>
				</g>
				<g>
					<linearGradient id="SVGID_15_" gradientUnits="userSpaceOnUse" x1="33.6425" y1="21.4894" x2="137.7217" y2="252.4597">
						<stop  offset="0" style="stop-color:#8DC73F"/>
						<stop  offset="1" style="stop-color:#03ACB3"/>
					</linearGradient>
					<path style="fill:url(#SVGID_15_);" d="M144.92,202.26v0.23c0,4.88-3.96,8.84-8.84,8.84h-6.98l-3.31-7.62
						c-0.38-0.87-1.68-0.6-1.68,0.35v7.28H94.23c-4.89,0-8.84-3.96-8.84-8.84v-0.23c0-4.88,3.96-8.84,8.84-8.84h6.96l3.32,7.65
						c0.38,0.87,1.68,0.6,1.68-0.35v-7.3h29.88C140.96,193.42,144.92,197.38,144.92,202.26z"/>
				</g>
			</g>
		</g>
	</g>
	<g>
		<path style="fill:#292C2D;" d="M479.14,202.65l-15.92,25.72h16.02v3.72h-21.1v-3.39l15.92-25.72h-15.73v-3.72h20.82V202.65z"/>
		<path style="fill:#292C2D;" d="M486.86,199.26h4.29v20.77c0,6.03,3.25,8.62,8.1,8.62c4.85,0,8.05-2.59,8.05-8.62v-20.77h4.29
			v20.73c0,8.53-5.61,12.44-12.39,12.44s-12.34-3.91-12.34-12.44V199.26z"/>
		<path style="fill:#292C2D;" d="M538.29,202.75h-13.38v10.98h11.96v3.53h-11.96v11.31h13.38v3.53h-17.66v-32.88h17.66V202.75z"/>
		<path style="fill:#292C2D;" d="M557.27,199.26c7.72,0,11.4,4.29,11.4,9.66c0,4.19-2.31,8.2-7.82,9.42l8.24,13.75h-5.13
			l-7.82-13.42h-5.18v13.42h-4.29v-32.83H557.27z M557.27,202.8h-6.31v12.44h6.31c4.85,0,6.97-2.64,6.97-6.31
			C564.24,205.2,562.17,202.8,557.27,202.8z"/>
		<path style="fill:#292C2D;" d="M587.6,232.42c-6.59,0-11.26-3.67-11.35-9.09h4.57c0.28,2.73,2.21,5.46,6.78,5.46
			c4.14,0,6.59-2.35,6.59-5.46c0-8.86-17.76-3.2-17.76-15.4c0-5.42,4.38-9.09,10.88-9.09c6.27,0,10.36,3.44,10.88,8.43h-4.71
			c-0.28-2.21-2.36-4.71-6.36-4.76c-3.53-0.09-6.31,1.74-6.31,5.28c0,8.48,17.71,3.2,17.71,15.36
			C598.53,227.81,594.72,232.42,587.6,232.42z"/>
		<path style="fill:#292C2D;" d="M604.7,199.26h22.23v3.49h-8.95v29.35h-4.29v-29.35h-9V199.26z"/>
		<path style="fill:#292C2D;" d="M676.2,215.75c0,10.17-6.64,16.35-17.43,16.35h-10.22v-32.83h10.22
			C669.56,199.26,676.2,205.58,676.2,215.75z M658.77,228.56c8.57,0,13.05-4.8,13.05-12.81c0-8.01-4.47-13-13.05-13h-5.94v25.81
			H658.77z"/>
		<path style="fill:#292C2D;" d="M701.39,202.75h-13.38v10.98h11.96v3.53h-11.96v11.31h13.38v3.53h-17.66v-32.88h17.66V202.75z"/>
		<path style="fill:#292C2D;" d="M720.37,199.26c7.72,0,11.4,4.29,11.4,9.66c0,4.19-2.31,8.2-7.82,9.42l8.24,13.75h-5.13
			l-7.82-13.42h-5.18v13.42h-4.29v-32.83H720.37z M720.37,202.8h-6.31v12.44h6.31c4.85,0,6.97-2.64,6.97-6.31
			C727.34,205.2,725.27,202.8,720.37,202.8z"/>
		<path style="fill:#292C2D;" d="M754.75,199.5h4.62l12.06,26.94l12.06-26.94h4.57v32.6h-4.29v-24.31l-10.83,24.31h-3.01
			l-10.88-24.35v24.35h-4.29V199.5z"/>
		<path style="fill:#292C2D;" d="M814.85,202.75h-13.38v10.98h11.96v3.53h-11.96v11.31h13.38v3.53h-17.66v-32.88h17.66V202.75z"/>
		<path style="fill:#292C2D;" d="M849.05,199.22v32.88h-4.29l-17.24-26.14v26.14h-4.29v-32.88h4.29l17.24,26.1v-26.1H849.05z"/>
		<path style="fill:#292C2D;" d="M868.64,232.42c-6.59,0-11.26-3.67-11.35-9.09h4.57c0.28,2.73,2.21,5.46,6.78,5.46
			c4.14,0,6.59-2.35,6.59-5.46c0-8.86-17.76-3.2-17.76-15.4c0-5.42,4.38-9.09,10.88-9.09c6.27,0,10.36,3.44,10.88,8.43h-4.71
			c-0.28-2.21-2.36-4.71-6.36-4.76c-3.53-0.09-6.31,1.74-6.31,5.28c0,8.48,17.71,3.2,17.71,15.36
			C879.57,227.81,875.75,232.42,868.64,232.42z"/>
		<path style="fill:#292C2D;" d="M902.55,198.84c7.11,0,12.76,3.58,15.21,9.94h-5.13c-1.79-3.96-5.28-6.17-10.08-6.17
			c-6.88,0-12.01,4.99-12.01,13.05c0,8.01,5.13,13,12.01,13c4.8,0,8.29-2.21,10.08-6.12h5.13c-2.45,6.31-8.1,9.84-15.21,9.84
			c-9.19,0-16.39-6.88-16.39-16.72S893.37,198.84,902.55,198.84z"/>
		<path style="fill:#292C2D;" d="M947.01,217.21h-16.72v14.88H926v-32.83h4.29v14.41h16.72v-14.41h4.29v32.83h-4.29V217.21z"/>
		<path style="fill:#292C2D;" d="M974.85,213.02h24.78v3.63h-24.78V213.02z"/>
		<path style="fill:#292C2D;" d="M1033.53,232.42c-6.59,0-11.26-3.67-11.35-9.09h4.57c0.28,2.73,2.21,5.46,6.78,5.46
			c4.14,0,6.59-2.35,6.59-5.46c0-8.86-17.76-3.2-17.76-15.4c0-5.42,4.38-9.09,10.88-9.09c6.27,0,10.36,3.44,10.88,8.43h-4.71
			c-0.28-2.21-2.36-4.71-6.36-4.76c-3.53-0.09-6.31,1.74-6.31,5.28c0,8.48,17.71,3.2,17.71,15.36
			C1044.46,227.81,1040.64,232.42,1033.53,232.42z"/>
		<path style="fill:#292C2D;" d="M1070.32,202.75h-13.38v10.98h11.96v3.53h-11.96v11.31h13.38v3.53h-17.66v-32.88h17.66V202.75z"/>
		<path style="fill:#292C2D;" d="M1078.7,199.26h4.29v32.83h-4.29V199.26z"/>
		<path style="fill:#292C2D;" d="M1090.14,199.26h22.23v3.49h-8.95v29.35h-4.29v-29.35h-9V199.26z"/>
		<path style="fill:#292C2D;" d="M1136.67,201.95h-4.52v-3.91h8.86v34.06h-4.33V201.95z"/>
		<path style="fill:#292C2D;" d="M1150.99,206.56c0-4.99,3.77-9.04,11.16-9.04s11.21,4.1,11.21,9.04c0,3.67-2.12,6.5-5.46,7.82
			c3.86,1.18,6.36,4.29,6.36,8.53c0,6.17-4.9,10.13-12.11,10.13c-7.16,0-12.01-3.96-12.01-10.13c0-4.29,2.5-7.4,6.31-8.53
			C1152.97,213.02,1150.99,210.38,1150.99,206.56z M1154.24,222.77c0,4,3.06,6.69,7.91,6.69s7.87-2.73,7.87-6.69
			c0-4.38-3.39-6.5-7.87-6.5C1157.78,216.27,1154.24,218.25,1154.24,222.77z M1169.22,207.08c0-3.91-2.78-5.98-7.07-5.98
			c-4.19,0-7.02,2.03-7.02,6.03c0,3.53,2.87,5.84,7.02,5.84C1166.35,212.97,1169.22,210.62,1169.22,207.08z"/>
		<path style="fill:#292C2D;" d="M1202.8,198.13v3.25l-13.09,30.71h-4.33l13.28-30.29h-18.18v-3.67H1202.8z"/>
		<path style="fill:#292C2D;" d="M1208.92,228.66c8.95-7.21,17.43-13.99,17.43-20.96c0-3.77-1.65-6.59-6.26-6.59
			c-4.43,0-6.69,3.06-6.88,7.35h-4.14c0.28-7.25,4.85-11.02,10.97-11.02c6.41,0,10.55,3.77,10.55,10.08
			c0,8.48-9.14,15.69-15.21,20.63h16.2v3.58h-22.66V228.66z"/>
	</g>
</g>
<g>
</g>
<g>
</g>
<g>
</g>
<g>
</g>
<g>
</g>
<g>
</g>
<g>
</g>
<g>
</g>
<g>
</g>
<g>
</g>
<g>
</g>
<g>
</g>
<g>
</g>
<g>
</g>
<g>
</g>
</svg>
