<svg xmlns="http://www.w3.org/2000/svg" xmlns:xlink="http://www.w3.org/1999/xlink" width="1800" zoomAndPan="magnify" viewBox="0 0 1350 495.12" height="650" preserveAspectRatio="xMidYMid meet" version="1.0"><defs><g/><clipPath id="d45236cf31"><rect x="0" width="964" y="0" height="61"/></clipPath><clipPath id="e378341b9f"><rect x="0" width="982" y="0" height="289"/></clipPath></defs><path fill="#4a8fd4" d="M 78.390625 131.527344 L 103.753906 131.527344 C 104.378906 131.527344 104.996094 131.585938 105.609375 131.710938 C 106.222656 131.832031 106.816406 132.011719 107.394531 132.25 C 107.96875 132.488281 108.519531 132.78125 109.039062 133.128906 C 109.554688 133.476562 110.035156 133.871094 110.476562 134.3125 C 110.921875 134.753906 111.3125 135.234375 111.660156 135.753906 C 112.007812 136.273438 112.300781 136.820312 112.539062 137.398438 C 112.777344 137.976562 112.960938 138.570312 113.082031 139.183594 C 113.203125 139.792969 113.265625 140.414062 113.265625 141.039062 L 113.265625 166.398438 C 113.265625 167.023438 113.203125 167.640625 113.082031 168.253906 C 112.960938 168.867188 112.777344 169.460938 112.539062 170.039062 C 112.300781 170.613281 112.007812 171.164062 111.660156 171.683594 C 111.3125 172.203125 110.921875 172.683594 110.476562 173.125 C 110.035156 173.566406 109.554688 173.960938 109.039062 174.304688 C 108.519531 174.652344 107.96875 174.945312 107.394531 175.183594 C 106.816406 175.425781 106.222656 175.605469 105.609375 175.726562 C 104.996094 175.847656 104.378906 175.910156 103.753906 175.910156 L 78.390625 175.910156 C 77.769531 175.910156 77.148438 175.847656 76.535156 175.726562 C 75.925781 175.605469 75.328125 175.425781 74.753906 175.183594 C 74.175781 174.945312 73.628906 174.652344 73.109375 174.304688 C 72.589844 173.960938 72.109375 173.566406 71.667969 173.125 C 71.226562 172.683594 70.832031 172.203125 70.484375 171.683594 C 70.136719 171.164062 69.84375 170.613281 69.605469 170.039062 C 69.367188 169.460938 69.1875 168.867188 69.066406 168.253906 C 68.941406 167.640625 68.882812 167.023438 68.882812 166.398438 L 68.882812 141.039062 C 68.882812 140.414062 68.941406 139.792969 69.066406 139.183594 C 69.1875 138.570312 69.367188 137.976562 69.605469 137.398438 C 69.84375 136.820312 70.136719 136.273438 70.484375 135.753906 C 70.832031 135.234375 71.226562 134.753906 71.667969 134.3125 C 72.109375 133.871094 72.589844 133.476562 73.109375 133.128906 C 73.628906 132.78125 74.175781 132.488281 74.753906 132.25 C 75.328125 132.011719 75.925781 131.832031 76.535156 131.710938 C 77.148438 131.585938 77.769531 131.527344 78.390625 131.527344 Z M 78.390625 131.527344 " fill-opacity="0.25" fill-rule="nonzero"/><path fill="#4a8fd4" d="M 138.625 131.527344 L 163.988281 131.527344 C 164.609375 131.527344 165.230469 131.585938 165.839844 131.710938 C 166.453125 131.832031 167.050781 132.011719 167.625 132.25 C 168.203125 132.488281 168.75 132.78125 169.269531 133.128906 C 169.789062 133.476562 170.269531 133.871094 170.710938 134.3125 C 171.152344 134.753906 171.546875 135.234375 171.894531 135.753906 C 172.242188 136.273438 172.535156 136.820312 172.773438 137.398438 C 173.011719 137.976562 173.191406 138.570312 173.3125 139.183594 C 173.4375 139.792969 173.496094 140.414062 173.496094 141.039062 L 173.496094 166.398438 C 173.496094 167.023438 173.4375 167.640625 173.3125 168.253906 C 173.191406 168.867188 173.011719 169.460938 172.773438 170.039062 C 172.535156 170.613281 172.242188 171.164062 171.894531 171.683594 C 171.546875 172.203125 171.152344 172.683594 170.710938 173.125 C 170.269531 173.566406 169.789062 173.960938 169.269531 174.304688 C 168.75 174.652344 168.203125 174.945312 167.625 175.183594 C 167.050781 175.425781 166.453125 175.605469 165.839844 175.726562 C 165.230469 175.847656 164.609375 175.910156 163.988281 175.910156 L 138.625 175.910156 C 138 175.910156 137.382812 175.847656 136.769531 175.726562 C 136.15625 175.605469 135.5625 175.425781 134.984375 175.183594 C 134.410156 174.945312 133.859375 174.652344 133.339844 174.304688 C 132.820312 173.960938 132.34375 173.566406 131.898438 173.125 C 131.457031 172.683594 131.066406 172.203125 130.71875 171.683594 C 130.371094 171.164062 130.078125 170.613281 129.839844 170.039062 C 129.601562 169.460938 129.417969 168.867188 129.296875 168.253906 C 129.175781 167.640625 129.113281 167.023438 129.113281 166.398438 L 129.113281 141.039062 C 129.113281 140.414062 129.175781 139.792969 129.296875 139.183594 C 129.417969 138.570312 129.601562 137.976562 129.839844 137.398438 C 130.078125 136.820312 130.371094 136.273438 130.71875 135.753906 C 131.066406 135.234375 131.457031 134.753906 131.898438 134.3125 C 132.34375 133.871094 132.820312 133.476562 133.339844 133.128906 C 133.859375 132.78125 134.410156 132.488281 134.984375 132.25 C 135.5625 132.011719 136.15625 131.832031 136.769531 131.710938 C 137.382812 131.585938 138 131.527344 138.625 131.527344 Z M 138.625 131.527344 " fill-opacity="0.5" fill-rule="nonzero"/><path fill="#ffffff" d="M 198.859375 131.527344 L 224.21875 131.527344 C 224.84375 131.527344 225.460938 131.585938 226.074219 131.710938 C 226.6875 131.832031 227.28125 132.011719 227.859375 132.25 C 228.4375 132.488281 228.984375 132.78125 229.503906 133.128906 C 230.023438 133.476562 230.503906 133.871094 230.945312 134.3125 C 231.386719 134.753906 231.78125 135.234375 232.125 135.753906 C 232.472656 136.273438 232.765625 136.820312 233.003906 137.398438 C 233.246094 137.976562 233.425781 138.570312 233.546875 139.183594 C 233.667969 139.792969 233.730469 140.414062 233.730469 141.039062 L 233.730469 166.398438 C 233.730469 167.023438 233.667969 167.640625 233.546875 168.253906 C 233.425781 168.867188 233.246094 169.460938 233.003906 170.039062 C 232.765625 170.613281 232.472656 171.164062 232.125 171.683594 C 231.78125 172.203125 231.386719 172.683594 230.945312 173.125 C 230.503906 173.566406 230.023438 173.960938 229.503906 174.304688 C 228.984375 174.652344 228.4375 174.945312 227.859375 175.183594 C 227.28125 175.425781 226.6875 175.605469 226.074219 175.726562 C 225.460938 175.847656 224.84375 175.910156 224.21875 175.910156 L 198.859375 175.910156 C 198.234375 175.910156 197.613281 175.847656 197.003906 175.726562 C 196.390625 175.605469 195.796875 175.425781 195.21875 175.183594 C 194.640625 174.945312 194.09375 174.652344 193.574219 174.304688 C 193.054688 173.960938 192.574219 173.566406 192.132812 173.125 C 191.691406 172.683594 191.296875 172.203125 190.949219 171.683594 C 190.601562 171.164062 190.308594 170.613281 190.070312 170.039062 C 189.832031 169.460938 189.652344 168.867188 189.53125 168.253906 C 189.410156 167.640625 189.347656 167.023438 189.347656 166.398438 L 189.347656 141.039062 C 189.347656 140.414062 189.410156 139.792969 189.53125 139.183594 C 189.652344 138.570312 189.832031 137.976562 190.070312 137.398438 C 190.308594 136.820312 190.601562 136.273438 190.949219 135.753906 C 191.296875 135.234375 191.691406 134.753906 192.132812 134.3125 C 192.574219 133.871094 193.054688 133.476562 193.574219 133.128906 C 194.09375 132.78125 194.640625 132.488281 195.21875 132.25 C 195.796875 132.011719 196.390625 131.832031 197.003906 131.710938 C 197.613281 131.585938 198.234375 131.527344 198.859375 131.527344 Z M 198.859375 131.527344 " fill-opacity="0.15" fill-rule="nonzero"/><path fill="#4a8fd4" d="M 78.390625 191.757812 L 103.753906 191.757812 C 104.378906 191.757812 104.996094 191.820312 105.609375 191.941406 C 106.222656 192.0625 106.816406 192.246094 107.394531 192.484375 C 107.96875 192.722656 108.519531 193.015625 109.039062 193.363281 C 109.554688 193.710938 110.035156 194.105469 110.476562 194.546875 C 110.921875 194.988281 111.3125 195.46875 111.660156 195.984375 C 112.007812 196.503906 112.300781 197.054688 112.539062 197.628906 C 112.777344 198.207031 112.960938 198.800781 113.082031 199.414062 C 113.203125 200.027344 113.265625 200.644531 113.265625 201.269531 L 113.265625 226.632812 C 113.265625 227.253906 113.203125 227.875 113.082031 228.488281 C 112.960938 229.097656 112.777344 229.695312 112.539062 230.269531 C 112.300781 230.847656 112.007812 231.394531 111.660156 231.914062 C 111.3125 232.433594 110.921875 232.914062 110.476562 233.355469 C 110.035156 233.796875 109.554688 234.191406 109.039062 234.539062 C 108.519531 234.886719 107.96875 235.179688 107.394531 235.417969 C 106.816406 235.65625 106.222656 235.835938 105.609375 235.957031 C 104.996094 236.082031 104.378906 236.140625 103.753906 236.140625 L 78.390625 236.140625 C 77.769531 236.140625 77.148438 236.082031 76.535156 235.957031 C 75.925781 235.835938 75.328125 235.65625 74.753906 235.417969 C 74.175781 235.179688 73.628906 234.886719 73.109375 234.539062 C 72.589844 234.191406 72.109375 233.796875 71.667969 233.355469 C 71.226562 232.914062 70.832031 232.433594 70.484375 231.914062 C 70.136719 231.394531 69.84375 230.847656 69.605469 230.269531 C 69.367188 229.695312 69.1875 229.097656 69.066406 228.488281 C 68.941406 227.875 68.882812 227.253906 68.882812 226.632812 L 68.882812 201.269531 C 68.882812 200.644531 68.941406 200.027344 69.066406 199.414062 C 69.1875 198.800781 69.367188 198.207031 69.605469 197.628906 C 69.84375 197.054688 70.136719 196.503906 70.484375 195.984375 C 70.832031 195.46875 71.226562 194.988281 71.667969 194.546875 C 72.109375 194.105469 72.589844 193.710938 73.109375 193.363281 C 73.628906 193.015625 74.175781 192.722656 74.753906 192.484375 C 75.328125 192.246094 75.925781 192.0625 76.535156 191.941406 C 77.148438 191.820312 77.769531 191.757812 78.390625 191.757812 Z M 78.390625 191.757812 " fill-opacity="0.5" fill-rule="nonzero"/><path fill="#ffffff" d="M 138.625 191.757812 L 163.988281 191.757812 C 164.609375 191.757812 165.230469 191.820312 165.839844 191.941406 C 166.453125 192.0625 167.050781 192.246094 167.625 192.484375 C 168.203125 192.722656 168.75 193.015625 169.269531 193.363281 C 169.789062 193.710938 170.269531 194.105469 170.710938 194.546875 C 171.152344 194.988281 171.546875 195.46875 171.894531 195.984375 C 172.242188 196.503906 172.535156 197.054688 172.773438 197.628906 C 173.011719 198.207031 173.191406 198.800781 173.3125 199.414062 C 173.4375 200.027344 173.496094 200.644531 173.496094 201.269531 L 173.496094 226.632812 C 173.496094 227.253906 173.4375 227.875 173.3125 228.488281 C 173.191406 229.097656 173.011719 229.695312 172.773438 230.269531 C 172.535156 230.847656 172.242188 231.394531 171.894531 231.914062 C 171.546875 232.433594 171.152344 232.914062 170.710938 233.355469 C 170.269531 233.796875 169.789062 234.191406 169.269531 234.539062 C 168.75 234.886719 168.203125 235.179688 167.625 235.417969 C 167.050781 235.65625 166.453125 235.835938 165.839844 235.957031 C 165.230469 236.082031 164.609375 236.140625 163.988281 236.140625 L 138.625 236.140625 C 138 236.140625 137.382812 236.082031 136.769531 235.957031 C 136.15625 235.835938 135.5625 235.65625 134.984375 235.417969 C 134.410156 235.179688 133.859375 234.886719 133.339844 234.539062 C 132.820312 234.191406 132.34375 233.796875 131.898438 233.355469 C 131.457031 232.914062 131.066406 232.433594 130.71875 231.914062 C 130.371094 231.394531 130.078125 230.847656 129.839844 230.269531 C 129.601562 229.695312 129.417969 229.097656 129.296875 228.488281 C 129.175781 227.875 129.113281 227.253906 129.113281 226.632812 L 129.113281 201.269531 C 129.113281 200.644531 129.175781 200.027344 129.296875 199.414062 C 129.417969 198.800781 129.601562 198.207031 129.839844 197.628906 C 130.078125 197.054688 130.371094 196.503906 130.71875 195.984375 C 131.066406 195.46875 131.457031 194.988281 131.898438 194.546875 C 132.34375 194.105469 132.820312 193.710938 133.339844 193.363281 C 133.859375 193.015625 134.410156 192.722656 134.984375 192.484375 C 135.5625 192.246094 136.15625 192.0625 136.769531 191.941406 C 137.382812 191.820312 138 191.757812 138.625 191.757812 Z M 138.625 191.757812 " fill-opacity="0.95" fill-rule="nonzero"/><path fill="#4a8fd4" d="M 198.859375 191.757812 L 224.21875 191.757812 C 224.84375 191.757812 225.460938 191.820312 226.074219 191.941406 C 226.6875 192.0625 227.28125 192.246094 227.859375 192.484375 C 228.4375 192.722656 228.984375 193.015625 229.503906 193.363281 C 230.023438 193.710938 230.503906 194.105469 230.945312 194.546875 C 231.386719 194.988281 231.78125 195.46875 232.125 195.984375 C 232.472656 196.503906 232.765625 197.054688 233.003906 197.628906 C 233.246094 198.207031 233.425781 198.800781 233.546875 199.414062 C 233.667969 200.027344 233.730469 200.644531 233.730469 201.269531 L 233.730469 226.632812 C 233.730469 227.253906 233.667969 227.875 233.546875 228.488281 C 233.425781 229.097656 233.246094 229.695312 233.003906 230.269531 C 232.765625 230.847656 232.472656 231.394531 232.125 231.914062 C 231.78125 232.433594 231.386719 232.914062 230.945312 233.355469 C 230.503906 233.796875 230.023438 234.191406 229.503906 234.539062 C 228.984375 234.886719 228.4375 235.179688 227.859375 235.417969 C 227.28125 235.65625 226.6875 235.835938 226.074219 235.957031 C 225.460938 236.082031 224.84375 236.140625 224.21875 236.140625 L 198.859375 236.140625 C 198.234375 236.140625 197.613281 236.082031 197.003906 235.957031 C 196.390625 235.835938 195.796875 235.65625 195.21875 235.417969 C 194.640625 235.179688 194.09375 234.886719 193.574219 234.539062 C 193.054688 234.191406 192.574219 233.796875 192.132812 233.355469 C 191.691406 232.914062 191.296875 232.433594 190.949219 231.914062 C 190.601562 231.394531 190.308594 230.847656 190.070312 230.269531 C 189.832031 229.695312 189.652344 229.097656 189.53125 228.488281 C 189.410156 227.875 189.347656 227.253906 189.347656 226.632812 L 189.347656 201.269531 C 189.347656 200.644531 189.410156 200.027344 189.53125 199.414062 C 189.652344 198.800781 189.832031 198.207031 190.070312 197.628906 C 190.308594 197.054688 190.601562 196.503906 190.949219 195.984375 C 191.296875 195.46875 191.691406 194.988281 192.132812 194.546875 C 192.574219 194.105469 193.054688 193.710938 193.574219 193.363281 C 194.09375 193.015625 194.640625 192.722656 195.21875 192.484375 C 195.796875 192.246094 196.390625 192.0625 197.003906 191.941406 C 197.613281 191.820312 198.234375 191.757812 198.859375 191.757812 Z M 198.859375 191.757812 " fill-opacity="0.5" fill-rule="nonzero"/><path fill="#ffffff" d="M 78.390625 251.992188 L 103.753906 251.992188 C 104.378906 251.992188 104.996094 252.054688 105.609375 252.175781 C 106.222656 252.296875 106.816406 252.476562 107.394531 252.714844 C 107.96875 252.957031 108.519531 253.25 109.039062 253.59375 C 109.554688 253.941406 110.035156 254.335938 110.476562 254.777344 C 110.921875 255.21875 111.3125 255.699219 111.660156 256.21875 C 112.007812 256.738281 112.300781 257.285156 112.539062 257.863281 C 112.777344 258.441406 112.960938 259.035156 113.082031 259.648438 C 113.203125 260.261719 113.265625 260.878906 113.265625 261.503906 L 113.265625 286.863281 C 113.265625 287.488281 113.203125 288.105469 113.082031 288.71875 C 112.960938 289.332031 112.777344 289.925781 112.539062 290.503906 C 112.300781 291.082031 112.007812 291.628906 111.660156 292.148438 C 111.3125 292.667969 110.921875 293.148438 110.476562 293.589844 C 110.035156 294.03125 109.554688 294.425781 109.039062 294.773438 C 108.519531 295.117188 107.96875 295.410156 107.394531 295.652344 C 106.816406 295.890625 106.222656 296.070312 105.609375 296.191406 C 104.996094 296.3125 104.378906 296.375 103.753906 296.375 L 78.390625 296.375 C 77.769531 296.375 77.148438 296.3125 76.535156 296.191406 C 75.925781 296.070312 75.328125 295.890625 74.753906 295.652344 C 74.175781 295.410156 73.628906 295.117188 73.109375 294.773438 C 72.589844 294.425781 72.109375 294.03125 71.667969 293.589844 C 71.226562 293.148438 70.832031 292.667969 70.484375 292.148438 C 70.136719 291.628906 69.84375 291.082031 69.605469 290.503906 C 69.367188 289.925781 69.1875 289.332031 69.066406 288.71875 C 68.941406 288.105469 68.882812 287.488281 68.882812 286.863281 L 68.882812 261.503906 C 68.882812 260.878906 68.941406 260.261719 69.066406 259.648438 C 69.1875 259.035156 69.367188 258.441406 69.605469 257.863281 C 69.84375 257.285156 70.136719 256.738281 70.484375 256.21875 C 70.832031 255.699219 71.226562 255.21875 71.667969 254.777344 C 72.109375 254.335938 72.589844 253.941406 73.109375 253.59375 C 73.628906 253.25 74.175781 252.957031 74.753906 252.714844 C 75.328125 252.476562 75.925781 252.296875 76.535156 252.175781 C 77.148438 252.054688 77.769531 251.992188 78.390625 251.992188 Z M 78.390625 251.992188 " fill-opacity="0.15" fill-rule="nonzero"/><path fill="#4a8fd4" d="M 138.625 251.992188 L 163.988281 251.992188 C 164.609375 251.992188 165.230469 252.054688 165.839844 252.175781 C 166.453125 252.296875 167.050781 252.476562 167.625 252.714844 C 168.203125 252.957031 168.75 253.25 169.269531 253.59375 C 169.789062 253.941406 170.269531 254.335938 170.710938 254.777344 C 171.152344 255.21875 171.546875 255.699219 171.894531 256.21875 C 172.242188 256.738281 172.535156 257.285156 172.773438 257.863281 C 173.011719 258.441406 173.191406 259.035156 173.3125 259.648438 C 173.4375 260.261719 173.496094 260.878906 173.496094 261.503906 L 173.496094 286.863281 C 173.496094 287.488281 173.4375 288.105469 173.3125 288.71875 C 173.191406 289.332031 173.011719 289.925781 172.773438 290.503906 C 172.535156 291.082031 172.242188 291.628906 171.894531 292.148438 C 171.546875 292.667969 171.152344 293.148438 170.710938 293.589844 C 170.269531 294.03125 169.789062 294.425781 169.269531 294.773438 C 168.75 295.117188 168.203125 295.410156 167.625 295.652344 C 167.050781 295.890625 166.453125 296.070312 165.839844 296.191406 C 165.230469 296.3125 164.609375 296.375 163.988281 296.375 L 138.625 296.375 C 138 296.375 137.382812 296.3125 136.769531 296.191406 C 136.15625 296.070312 135.5625 295.890625 134.984375 295.652344 C 134.410156 295.410156 133.859375 295.117188 133.339844 294.773438 C 132.820312 294.425781 132.34375 294.03125 131.898438 293.589844 C 131.457031 293.148438 131.066406 292.667969 130.71875 292.148438 C 130.371094 291.628906 130.078125 291.082031 129.839844 290.503906 C 129.601562 289.925781 129.417969 289.332031 129.296875 288.71875 C 129.175781 288.105469 129.113281 287.488281 129.113281 286.863281 L 129.113281 261.503906 C 129.113281 260.878906 129.175781 260.261719 129.296875 259.648438 C 129.417969 259.035156 129.601562 258.441406 129.839844 257.863281 C 130.078125 257.285156 130.371094 256.738281 130.71875 256.21875 C 131.066406 255.699219 131.457031 255.21875 131.898438 254.777344 C 132.34375 254.335938 132.820312 253.941406 133.339844 253.59375 C 133.859375 253.25 134.410156 252.957031 134.984375 252.714844 C 135.5625 252.476562 136.15625 252.296875 136.769531 252.175781 C 137.382812 252.054688 138 251.992188 138.625 251.992188 Z M 138.625 251.992188 " fill-opacity="0.5" fill-rule="nonzero"/><path fill="#4a8fd4" d="M 198.859375 251.992188 L 224.21875 251.992188 C 224.84375 251.992188 225.460938 252.054688 226.074219 252.175781 C 226.6875 252.296875 227.28125 252.476562 227.859375 252.714844 C 228.4375 252.957031 228.984375 253.25 229.503906 253.59375 C 230.023438 253.941406 230.503906 254.335938 230.945312 254.777344 C 231.386719 255.21875 231.78125 255.699219 232.125 256.21875 C 232.472656 256.738281 232.765625 257.285156 233.003906 257.863281 C 233.246094 258.441406 233.425781 259.035156 233.546875 259.648438 C 233.667969 260.261719 233.730469 260.878906 233.730469 261.503906 L 233.730469 286.863281 C 233.730469 287.488281 233.667969 288.105469 233.546875 288.71875 C 233.425781 289.332031 233.246094 289.925781 233.003906 290.503906 C 232.765625 291.082031 232.472656 291.628906 232.125 292.148438 C 231.78125 292.667969 231.386719 293.148438 230.945312 293.589844 C 230.503906 294.03125 230.023438 294.425781 229.503906 294.773438 C 228.984375 295.117188 228.4375 295.410156 227.859375 295.652344 C 227.28125 295.890625 226.6875 296.070312 226.074219 296.191406 C 225.460938 296.3125 224.84375 296.375 224.21875 296.375 L 198.859375 296.375 C 198.234375 296.375 197.613281 296.3125 197.003906 296.191406 C 196.390625 296.070312 195.796875 295.890625 195.21875 295.652344 C 194.640625 295.410156 194.09375 295.117188 193.574219 294.773438 C 193.054688 294.425781 192.574219 294.03125 192.132812 293.589844 C 191.691406 293.148438 191.296875 292.667969 190.949219 292.148438 C 190.601562 291.628906 190.308594 291.082031 190.070312 290.503906 C 189.832031 289.925781 189.652344 289.332031 189.53125 288.71875 C 189.410156 288.105469 189.347656 287.488281 189.347656 286.863281 L 189.347656 261.503906 C 189.347656 260.878906 189.410156 260.261719 189.53125 259.648438 C 189.652344 259.035156 189.832031 258.441406 190.070312 257.863281 C 190.308594 257.285156 190.601562 256.738281 190.949219 256.21875 C 191.296875 255.699219 191.691406 255.21875 192.132812 254.777344 C 192.574219 254.335938 193.054688 253.941406 193.574219 253.59375 C 194.09375 253.25 194.640625 252.957031 195.21875 252.714844 C 195.796875 252.476562 196.390625 252.296875 197.003906 252.175781 C 197.613281 252.054688 198.234375 251.992188 198.859375 251.992188 Z M 198.859375 251.992188 " fill-opacity="0.25" fill-rule="nonzero"/><g transform="matrix(1, 0, 0, 1, 279, 321)"><g clip-path="url(#d45236cf31)"><g fill="#9cabc8" fill-opacity="1"><g transform="translate(0.672096, 48.688167)"><g><path d="M 24.796875 -3.140625 L 24.796875 0 L 3.921875 0 L 3.921875 -34.765625 L 24.453125 -34.765625 L 24.453125 -31.625 L 7.546875 -31.625 L 7.546875 -19.515625 L 23 -19.515625 L 23 -16.359375 L 7.546875 -16.359375 L 7.546875 -3.140625 Z M 24.796875 -3.140625 "/></g></g></g><g fill="#9cabc8" fill-opacity="1"><g transform="translate(28.276796, 48.688167)"><g><path d="M 7.546875 0 L 3.921875 0 L 3.921875 -34.765625 L 7.546875 -34.765625 Z M 7.546875 0 "/></g></g></g><g fill="#9cabc8" fill-opacity="1"><g transform="translate(39.754544, 48.688167)"><g><path d="M 27.59375 0 L 7.3125 -29.640625 L 7.3125 0 L 3.921875 0 L 3.921875 -34.765625 L 7.9375 -34.765625 L 28.03125 -5.515625 L 28.03125 -34.765625 L 31.46875 -34.765625 L 31.46875 0 Z M 27.59375 0 "/></g></g></g><g fill="#9cabc8" fill-opacity="1"><g transform="translate(75.156354, 48.688167)"><g/></g></g><g fill="#9cabc8" fill-opacity="1"><g transform="translate(85.278074, 48.688167)"><g><path d="M 28.421875 0 L 24.796875 -9.640625 L 8.578125 -9.640625 L 4.890625 0 L 1.3125 0 L 14.8125 -34.765625 L 18.78125 -34.765625 L 32.25 0 Z M 16.703125 -30.890625 L 9.6875 -12.59375 L 23.625 -12.59375 Z M 16.703125 -30.890625 "/></g></g></g><g fill="#9cabc8" fill-opacity="1"><g transform="translate(118.83958, 48.688167)"><g><path d="M 27.59375 0 L 7.3125 -29.640625 L 7.3125 0 L 3.921875 0 L 3.921875 -34.765625 L 7.9375 -34.765625 L 28.03125 -5.515625 L 28.03125 -34.765625 L 31.46875 -34.765625 L 31.46875 0 Z M 27.59375 0 "/></g></g></g><g fill="#9cabc8" fill-opacity="1"><g transform="translate(154.24139, 48.688167)"><g><path d="M 19.515625 0.71875 C 17.023438 0.71875 14.710938 0.269531 12.578125 -0.625 C 10.453125 -1.53125 8.585938 -2.789062 6.984375 -4.40625 C 5.390625 -6.019531 4.148438 -7.929688 3.265625 -10.140625 C 2.378906 -12.359375 1.9375 -14.773438 1.9375 -17.390625 C 1.9375 -19.960938 2.363281 -22.347656 3.21875 -24.546875 C 4.070312 -26.742188 5.273438 -28.65625 6.828125 -30.28125 C 8.378906 -31.914062 10.210938 -33.191406 12.328125 -34.109375 C 14.441406 -35.035156 16.753906 -35.5 19.265625 -35.5 C 22.304688 -35.5 24.972656 -34.925781 27.265625 -33.78125 C 29.554688 -32.632812 31.457031 -31.109375 32.96875 -29.203125 C 34.488281 -27.296875 35.570312 -25.179688 36.21875 -22.859375 L 32.109375 -22.859375 C 31.617188 -24.628906 30.800781 -26.21875 29.65625 -27.625 C 28.507812 -29.03125 27.0625 -30.148438 25.3125 -30.984375 C 23.570312 -31.828125 21.523438 -32.25 19.171875 -32.25 C 16.523438 -32.25 14.1875 -31.609375 12.15625 -30.328125 C 10.125 -29.054688 8.535156 -27.304688 7.390625 -25.078125 C 6.242188 -22.847656 5.671875 -20.265625 5.671875 -17.328125 C 5.671875 -14.492188 6.25 -11.945312 7.40625 -9.6875 C 8.570312 -7.425781 10.203125 -5.648438 12.296875 -4.359375 C 14.398438 -3.066406 16.835938 -2.421875 19.609375 -2.421875 C 23.390625 -2.421875 26.429688 -3.507812 28.734375 -5.6875 C 31.046875 -7.863281 32.425781 -10.78125 32.875 -14.4375 L 19.21875 -14.4375 L 19.21875 -17.390625 L 36.65625 -17.390625 C 36.625 -13.703125 35.894531 -10.503906 34.46875 -7.796875 C 33.050781 -5.085938 31.054688 -2.988281 28.484375 -1.5 C 25.921875 -0.0195312 22.929688 0.71875 19.515625 0.71875 Z M 19.515625 0.71875 "/></g></g></g><g fill="#9cabc8" fill-opacity="1"><g transform="translate(192.839535, 48.688167)"><g><path d="M 24.796875 -3.140625 L 24.796875 0 L 3.921875 0 L 3.921875 -34.765625 L 24.453125 -34.765625 L 24.453125 -31.625 L 7.546875 -31.625 L 7.546875 -19.515625 L 23 -19.515625 L 23 -16.359375 L 7.546875 -16.359375 L 7.546875 -3.140625 Z M 24.796875 -3.140625 "/></g></g></g><g fill="#9cabc8" fill-opacity="1"><g transform="translate(220.444235, 48.688167)"><g><path d="M 27.3125 -9.734375 C 27.3125 -6.628906 26.269531 -4.226562 24.1875 -2.53125 C 22.101562 -0.84375 19.351562 0 15.9375 0 L 3.921875 0 L 3.921875 -34.765625 L 15.203125 -34.765625 C 18.554688 -34.765625 21.175781 -33.988281 23.0625 -32.4375 C 24.957031 -30.894531 25.90625 -28.6875 25.90625 -25.8125 C 25.90625 -24.101562 25.394531 -22.550781 24.375 -21.15625 C 23.363281 -19.769531 21.96875 -18.753906 20.1875 -18.109375 C 22.550781 -17.523438 24.328125 -16.503906 25.515625 -15.046875 C 26.710938 -13.597656 27.3125 -11.828125 27.3125 -9.734375 Z M 15.015625 -31.8125 L 7.3125 -31.8125 L 7.3125 -19.421875 L 15.015625 -19.421875 C 17.367188 -19.421875 19.179688 -19.96875 20.453125 -21.0625 C 21.734375 -22.15625 22.375 -23.671875 22.375 -25.609375 C 22.375 -27.546875 21.734375 -29.0625 20.453125 -30.15625 C 19.179688 -31.257812 17.367188 -31.8125 15.015625 -31.8125 Z M 15.734375 -16.46875 L 7.3125 -16.46875 L 7.3125 -2.953125 L 15.734375 -2.953125 C 18.285156 -2.953125 20.269531 -3.554688 21.6875 -4.765625 C 23.113281 -5.972656 23.828125 -7.660156 23.828125 -9.828125 C 23.828125 -11.929688 23.113281 -13.5625 21.6875 -14.71875 C 20.269531 -15.882812 18.285156 -16.46875 15.734375 -16.46875 Z M 15.734375 -16.46875 "/></g></g></g><g fill="#9cabc8" fill-opacity="1"><g transform="translate(249.840825, 48.688167)"><g><path d="M 19.46875 0.71875 C 16.945312 0.71875 14.617188 0.253906 12.484375 -0.671875 C 10.359375 -1.609375 8.503906 -2.898438 6.921875 -4.546875 C 5.335938 -6.191406 4.109375 -8.117188 3.234375 -10.328125 C 2.367188 -12.546875 1.9375 -14.914062 1.9375 -17.4375 C 1.9375 -19.945312 2.367188 -22.300781 3.234375 -24.5 C 4.109375 -26.695312 5.335938 -28.617188 6.921875 -30.265625 C 8.503906 -31.910156 10.359375 -33.191406 12.484375 -34.109375 C 14.617188 -35.035156 16.945312 -35.5 19.46875 -35.5 C 21.988281 -35.5 24.3125 -35.035156 26.4375 -34.109375 C 28.570312 -33.191406 30.4375 -31.910156 32.03125 -30.265625 C 33.625 -28.617188 34.859375 -26.695312 35.734375 -24.5 C 36.609375 -22.300781 37.046875 -19.945312 37.046875 -17.4375 C 37.046875 -14.914062 36.609375 -12.546875 35.734375 -10.328125 C 34.859375 -8.117188 33.625 -6.191406 32.03125 -4.546875 C 30.4375 -2.898438 28.570312 -1.609375 26.4375 -0.671875 C 24.3125 0.253906 21.988281 0.71875 19.46875 0.71875 Z M 19.46875 -2.515625 C 22.207031 -2.515625 24.609375 -3.175781 26.671875 -4.5 C 28.742188 -5.820312 30.359375 -7.613281 31.515625 -9.875 C 32.679688 -12.132812 33.265625 -14.65625 33.265625 -17.4375 C 33.265625 -20.207031 32.679688 -22.710938 31.515625 -24.953125 C 30.359375 -27.203125 28.742188 -28.976562 26.671875 -30.28125 C 24.609375 -31.59375 22.207031 -32.25 19.46875 -32.25 C 16.75 -32.25 14.347656 -31.59375 12.265625 -30.28125 C 10.191406 -28.976562 8.570312 -27.203125 7.40625 -24.953125 C 6.25 -22.710938 5.671875 -20.207031 5.671875 -17.4375 C 5.671875 -14.65625 6.25 -12.132812 7.40625 -9.875 C 8.570312 -7.613281 10.191406 -5.820312 12.265625 -4.5 C 14.347656 -3.175781 16.75 -2.515625 19.46875 -2.515625 Z M 19.46875 -2.515625 "/></g></g></g><g fill="#9cabc8" fill-opacity="1"><g transform="translate(287.228242, 48.688167)"><g><path d="M 16.21875 0 L 12.640625 0 L 12.640625 -31.515625 L 0.96875 -31.515625 L 0.96875 -34.765625 L 27.890625 -34.765625 L 27.890625 -31.515625 L 16.21875 -31.515625 Z M 16.21875 0 "/></g></g></g><g fill="#9cabc8" fill-opacity="1"><g transform="translate(316.092113, 48.688167)"><g/></g></g><g fill="#9cabc8" fill-opacity="1"><g transform="translate(326.213819, 48.688167)"><g><path d="M 13.796875 0 L 3.921875 0 L 3.921875 -34.765625 L 13.796875 -34.765625 C 17.515625 -34.765625 20.65625 -34.035156 23.21875 -32.578125 C 25.78125 -31.128906 27.734375 -29.101562 29.078125 -26.5 C 30.421875 -23.90625 31.09375 -20.914062 31.09375 -17.53125 C 31.09375 -14.207031 30.40625 -11.21875 29.03125 -8.5625 C 27.65625 -5.914062 25.679688 -3.828125 23.109375 -2.296875 C 20.546875 -0.765625 17.441406 0 13.796875 0 Z M 7.546875 -31.625 L 7.546875 -3.140625 L 13.703125 -3.140625 C 16.640625 -3.140625 19.125 -3.738281 21.15625 -4.9375 C 23.1875 -6.132812 24.734375 -7.8125 25.796875 -9.96875 C 26.867188 -12.132812 27.40625 -14.65625 27.40625 -17.53125 C 27.40625 -21.820312 26.234375 -25.242188 23.890625 -27.796875 C 21.554688 -30.347656 18.160156 -31.625 13.703125 -31.625 Z M 7.546875 -31.625 "/></g></g></g><g fill="#9cabc8" fill-opacity="1"><g transform="translate(359.242618, 48.688167)"><g><path d="M 24.796875 -3.140625 L 24.796875 0 L 3.921875 0 L 3.921875 -34.765625 L 24.453125 -34.765625 L 24.453125 -31.625 L 7.546875 -31.625 L 7.546875 -19.515625 L 23 -19.515625 L 23 -16.359375 L 7.546875 -16.359375 L 7.546875 -3.140625 Z M 24.796875 -3.140625 "/></g></g></g><g fill="#9cabc8" fill-opacity="1"><g transform="translate(386.847306, 48.688167)"><g><path d="M 7.546875 0 L 3.921875 0 L 3.921875 -34.765625 L 16.3125 -34.765625 C 20 -34.765625 22.914062 -33.851562 25.0625 -32.03125 C 27.207031 -30.207031 28.28125 -27.617188 28.28125 -24.265625 C 28.28125 -21.648438 27.476562 -19.425781 25.875 -17.59375 C 24.28125 -15.769531 22.113281 -14.632812 19.375 -14.1875 L 29.203125 0 L 24.84375 0 L 15.5 -13.75 L 7.546875 -13.75 Z M 7.546875 -31.71875 L 7.546875 -16.796875 L 16.03125 -16.796875 C 18.707031 -16.796875 20.8125 -17.429688 22.34375 -18.703125 C 23.875 -19.984375 24.640625 -21.835938 24.640625 -24.265625 C 24.640625 -26.679688 23.875 -28.523438 22.34375 -29.796875 C 20.8125 -31.078125 18.707031 -31.71875 16.03125 -31.71875 Z M 7.546875 -31.71875 "/></g></g></g><g fill="#9cabc8" fill-opacity="1"><g transform="translate(417.696769, 48.688167)"><g/></g></g><g fill="#9cabc8" fill-opacity="1"><g transform="translate(427.818475, 48.688167)"><g><path d="M 7.546875 0 L 3.921875 0 L 3.921875 -34.765625 L 23.875 -34.765625 L 23.875 -31.625 L 7.546875 -31.625 L 7.546875 -18.0625 L 21.59375 -18.0625 L 21.59375 -14.90625 L 7.546875 -14.90625 Z M 7.546875 0 "/></g></g></g><g fill="#9cabc8" fill-opacity="1"><g transform="translate(453.147022, 48.688167)"><g><path d="M 7.546875 0 L 3.921875 0 L 3.921875 -34.765625 L 16.3125 -34.765625 C 20 -34.765625 22.914062 -33.851562 25.0625 -32.03125 C 27.207031 -30.207031 28.28125 -27.617188 28.28125 -24.265625 C 28.28125 -21.648438 27.476562 -19.425781 25.875 -17.59375 C 24.28125 -15.769531 22.113281 -14.632812 19.375 -14.1875 L 29.203125 0 L 24.84375 0 L 15.5 -13.75 L 7.546875 -13.75 Z M 7.546875 -31.71875 L 7.546875 -16.796875 L 16.03125 -16.796875 C 18.707031 -16.796875 20.8125 -17.429688 22.34375 -18.703125 C 23.875 -19.984375 24.640625 -21.835938 24.640625 -24.265625 C 24.640625 -26.679688 23.875 -28.523438 22.34375 -29.796875 C 20.8125 -31.078125 18.707031 -31.71875 16.03125 -31.71875 Z M 7.546875 -31.71875 "/></g></g></g><g fill="#9cabc8" fill-opacity="1"><g transform="translate(483.996485, 48.688167)"><g><path d="M 24.796875 -3.140625 L 24.796875 0 L 3.921875 0 L 3.921875 -34.765625 L 24.453125 -34.765625 L 24.453125 -31.625 L 7.546875 -31.625 L 7.546875 -19.515625 L 23 -19.515625 L 23 -16.359375 L 7.546875 -16.359375 L 7.546875 -3.140625 Z M 24.796875 -3.140625 "/></g></g></g><g fill="#9cabc8" fill-opacity="1"><g transform="translate(511.601172, 48.688167)"><g><path d="M 7.546875 0 L 3.921875 0 L 3.921875 -34.765625 L 7.546875 -34.765625 Z M 7.546875 0 "/></g></g></g><g fill="#9cabc8" fill-opacity="1"><g transform="translate(523.078893, 48.688167)"><g><path d="M 27.3125 -9.734375 C 27.3125 -6.628906 26.269531 -4.226562 24.1875 -2.53125 C 22.101562 -0.84375 19.351562 0 15.9375 0 L 3.921875 0 L 3.921875 -34.765625 L 15.203125 -34.765625 C 18.554688 -34.765625 21.175781 -33.988281 23.0625 -32.4375 C 24.957031 -30.894531 25.90625 -28.6875 25.90625 -25.8125 C 25.90625 -24.101562 25.394531 -22.550781 24.375 -21.15625 C 23.363281 -19.769531 21.96875 -18.753906 20.1875 -18.109375 C 22.550781 -17.523438 24.328125 -16.503906 25.515625 -15.046875 C 26.710938 -13.597656 27.3125 -11.828125 27.3125 -9.734375 Z M 15.015625 -31.8125 L 7.3125 -31.8125 L 7.3125 -19.421875 L 15.015625 -19.421875 C 17.367188 -19.421875 19.179688 -19.96875 20.453125 -21.0625 C 21.734375 -22.15625 22.375 -23.671875 22.375 -25.609375 C 22.375 -27.546875 21.734375 -29.0625 20.453125 -30.15625 C 19.179688 -31.257812 17.367188 -31.8125 15.015625 -31.8125 Z M 15.734375 -16.46875 L 7.3125 -16.46875 L 7.3125 -2.953125 L 15.734375 -2.953125 C 18.285156 -2.953125 20.269531 -3.554688 21.6875 -4.765625 C 23.113281 -5.972656 23.828125 -7.660156 23.828125 -9.828125 C 23.828125 -11.929688 23.113281 -13.5625 21.6875 -14.71875 C 20.269531 -15.882812 18.285156 -16.46875 15.734375 -16.46875 Z M 15.734375 -16.46875 "/></g></g></g><g fill="#9cabc8" fill-opacity="1"><g transform="translate(552.233365, 48.688167)"><g><path d="M 29.25 -34.765625 L 29.25 -11.90625 C 29.25 -9.320312 28.722656 -7.078125 27.671875 -5.171875 C 26.617188 -3.273438 25.140625 -1.816406 23.234375 -0.796875 C 21.335938 0.210938 19.113281 0.71875 16.5625 0.71875 C 14.007812 0.71875 11.769531 0.210938 9.84375 -0.796875 C 7.925781 -1.816406 6.441406 -3.273438 5.390625 -5.171875 C 4.347656 -7.078125 3.828125 -9.320312 3.828125 -11.90625 L 3.828125 -34.765625 L 7.453125 -34.765625 L 7.453125 -11.71875 C 7.453125 -8.875 8.300781 -6.628906 10 -4.984375 C 11.695312 -3.335938 13.882812 -2.515625 16.5625 -2.515625 C 19.238281 -2.515625 21.414062 -3.335938 23.09375 -4.984375 C 24.769531 -6.628906 25.609375 -8.875 25.609375 -11.71875 L 25.609375 -34.765625 Z M 29.25 -34.765625 "/></g></g></g><g fill="#9cabc8" fill-opacity="1"><g transform="translate(585.310566, 48.688167)"><g><path d="M 7.546875 0 L 3.921875 0 L 3.921875 -34.765625 L 16.3125 -34.765625 C 20 -34.765625 22.914062 -33.851562 25.0625 -32.03125 C 27.207031 -30.207031 28.28125 -27.617188 28.28125 -24.265625 C 28.28125 -21.648438 27.476562 -19.425781 25.875 -17.59375 C 24.28125 -15.769531 22.113281 -14.632812 19.375 -14.1875 L 29.203125 0 L 24.84375 0 L 15.5 -13.75 L 7.546875 -13.75 Z M 7.546875 -31.71875 L 7.546875 -16.796875 L 16.03125 -16.796875 C 18.707031 -16.796875 20.8125 -17.429688 22.34375 -18.703125 C 23.875 -19.984375 24.640625 -21.835938 24.640625 -24.265625 C 24.640625 -26.679688 23.875 -28.523438 22.34375 -29.796875 C 20.8125 -31.078125 18.707031 -31.71875 16.03125 -31.71875 Z M 7.546875 -31.71875 "/></g></g></g><g fill="#9cabc8" fill-opacity="1"><g transform="translate(615.627335, 48.688167)"><g><path d="M 19.515625 0.71875 C 17.023438 0.71875 14.710938 0.269531 12.578125 -0.625 C 10.453125 -1.53125 8.585938 -2.789062 6.984375 -4.40625 C 5.390625 -6.019531 4.148438 -7.929688 3.265625 -10.140625 C 2.378906 -12.359375 1.9375 -14.773438 1.9375 -17.390625 C 1.9375 -19.960938 2.363281 -22.347656 3.21875 -24.546875 C 4.070312 -26.742188 5.273438 -28.65625 6.828125 -30.28125 C 8.378906 -31.914062 10.210938 -33.191406 12.328125 -34.109375 C 14.441406 -35.035156 16.753906 -35.5 19.265625 -35.5 C 22.304688 -35.5 24.972656 -34.925781 27.265625 -33.78125 C 29.554688 -32.632812 31.457031 -31.109375 32.96875 -29.203125 C 34.488281 -27.296875 35.570312 -25.179688 36.21875 -22.859375 L 32.109375 -22.859375 C 31.617188 -24.628906 30.800781 -26.21875 29.65625 -27.625 C 28.507812 -29.03125 27.0625 -30.148438 25.3125 -30.984375 C 23.570312 -31.828125 21.523438 -32.25 19.171875 -32.25 C 16.523438 -32.25 14.1875 -31.609375 12.15625 -30.328125 C 10.125 -29.054688 8.535156 -27.304688 7.390625 -25.078125 C 6.242188 -22.847656 5.671875 -20.265625 5.671875 -17.328125 C 5.671875 -14.492188 6.25 -11.945312 7.40625 -9.6875 C 8.570312 -7.425781 10.203125 -5.648438 12.296875 -4.359375 C 14.398438 -3.066406 16.835938 -2.421875 19.609375 -2.421875 C 23.390625 -2.421875 26.429688 -3.507812 28.734375 -5.6875 C 31.046875 -7.863281 32.425781 -10.78125 32.875 -14.4375 L 19.21875 -14.4375 L 19.21875 -17.390625 L 36.65625 -17.390625 C 36.625 -13.703125 35.894531 -10.503906 34.46875 -7.796875 C 33.050781 -5.085938 31.054688 -2.988281 28.484375 -1.5 C 25.921875 -0.0195312 22.929688 0.71875 19.515625 0.71875 Z M 19.515625 0.71875 "/></g></g></g><g fill="#9cabc8" fill-opacity="1"><g transform="translate(654.225453, 48.688167)"><g><path d="M 24.796875 -3.140625 L 24.796875 0 L 3.921875 0 L 3.921875 -34.765625 L 24.453125 -34.765625 L 24.453125 -31.625 L 7.546875 -31.625 L 7.546875 -19.515625 L 23 -19.515625 L 23 -16.359375 L 7.546875 -16.359375 L 7.546875 -3.140625 Z M 24.796875 -3.140625 "/></g></g></g><g fill="#9cabc8" fill-opacity="1"><g transform="translate(681.83014, 48.688167)"><g><path d="M 7.546875 0 L 3.921875 0 L 3.921875 -34.765625 L 16.3125 -34.765625 C 20 -34.765625 22.914062 -33.851562 25.0625 -32.03125 C 27.207031 -30.207031 28.28125 -27.617188 28.28125 -24.265625 C 28.28125 -21.648438 27.476562 -19.425781 25.875 -17.59375 C 24.28125 -15.769531 22.113281 -14.632812 19.375 -14.1875 L 29.203125 0 L 24.84375 0 L 15.5 -13.75 L 7.546875 -13.75 Z M 7.546875 -31.71875 L 7.546875 -16.796875 L 16.03125 -16.796875 C 18.707031 -16.796875 20.8125 -17.429688 22.34375 -18.703125 C 23.875 -19.984375 24.640625 -21.835938 24.640625 -24.265625 C 24.640625 -26.679688 23.875 -28.523438 22.34375 -29.796875 C 20.8125 -31.078125 18.707031 -31.71875 16.03125 -31.71875 Z M 7.546875 -31.71875 "/></g></g></g><g fill="#9cabc8" fill-opacity="1"><g transform="translate(712.679603, 48.688167)"><g/></g></g><g fill="#9cabc8" fill-opacity="1"><g transform="translate(722.801363, 48.688167)"><g><path d="M 28.421875 0 L 24.796875 -9.640625 L 8.578125 -9.640625 L 4.890625 0 L 1.3125 0 L 14.8125 -34.765625 L 18.78125 -34.765625 L 32.25 0 Z M 16.703125 -30.890625 L 9.6875 -12.59375 L 23.625 -12.59375 Z M 16.703125 -30.890625 "/></g></g></g><g fill="#9cabc8" fill-opacity="1"><g transform="translate(756.362855, 48.688167)"><g><path d="M 7.546875 0 L 3.921875 0 L 3.921875 -34.765625 L 7.546875 -34.765625 L 7.546875 -18.015625 L 24.015625 -34.765625 L 28.234375 -34.765625 L 11.28125 -17.4375 L 28.71875 0 L 24.015625 0 L 7.546875 -16.3125 Z M 7.546875 0 "/></g></g></g><g fill="#9cabc8" fill-opacity="1"><g transform="translate(786.195333, 48.688167)"><g><path d="M 28.421875 0 L 24.796875 -9.640625 L 8.578125 -9.640625 L 4.890625 0 L 1.3125 0 L 14.8125 -34.765625 L 18.78125 -34.765625 L 32.25 0 Z M 16.703125 -30.890625 L 9.6875 -12.59375 L 23.625 -12.59375 Z M 16.703125 -30.890625 "/></g></g></g><g fill="#9cabc8" fill-opacity="1"><g transform="translate(819.756825, 48.688167)"><g><path d="M 13.796875 0 L 3.921875 0 L 3.921875 -34.765625 L 13.796875 -34.765625 C 17.515625 -34.765625 20.65625 -34.035156 23.21875 -32.578125 C 25.78125 -31.128906 27.734375 -29.101562 29.078125 -26.5 C 30.421875 -23.90625 31.09375 -20.914062 31.09375 -17.53125 C 31.09375 -14.207031 30.40625 -11.21875 29.03125 -8.5625 C 27.65625 -5.914062 25.679688 -3.828125 23.109375 -2.296875 C 20.546875 -0.765625 17.441406 0 13.796875 0 Z M 7.546875 -31.625 L 7.546875 -3.140625 L 13.703125 -3.140625 C 16.640625 -3.140625 19.125 -3.738281 21.15625 -4.9375 C 23.1875 -6.132812 24.734375 -7.8125 25.796875 -9.96875 C 26.867188 -12.132812 27.40625 -14.65625 27.40625 -17.53125 C 27.40625 -21.820312 26.234375 -25.242188 23.890625 -27.796875 C 21.554688 -30.347656 18.160156 -31.625 13.703125 -31.625 Z M 7.546875 -31.625 "/></g></g></g><g fill="#9cabc8" fill-opacity="1"><g transform="translate(852.785624, 48.688167)"><g><path d="M 24.796875 -3.140625 L 24.796875 0 L 3.921875 0 L 3.921875 -34.765625 L 24.453125 -34.765625 L 24.453125 -31.625 L 7.546875 -31.625 L 7.546875 -19.515625 L 23 -19.515625 L 23 -16.359375 L 7.546875 -16.359375 L 7.546875 -3.140625 Z M 24.796875 -3.140625 "/></g></g></g><g fill="#9cabc8" fill-opacity="1"><g transform="translate(880.390312, 48.688167)"><g><path d="M 19.90625 0 L 7.3125 -29.484375 L 7.3125 0 L 3.921875 0 L 3.921875 -34.765625 L 8.625 -34.765625 L 21.5 -4.453125 L 34.46875 -34.765625 L 39.125 -34.765625 L 39.125 0 L 35.78125 0 L 35.78125 -29.484375 L 23.09375 0 Z M 19.90625 0 "/></g></g></g><g fill="#9cabc8" fill-opacity="1"><g transform="translate(923.443959, 48.688167)"><g><path d="M 7.546875 0 L 3.921875 0 L 3.921875 -34.765625 L 7.546875 -34.765625 Z M 7.546875 0 "/></g></g></g><g fill="#9cabc8" fill-opacity="1"><g transform="translate(934.92168, 48.688167)"><g><path d="M 24.796875 -3.140625 L 24.796875 0 L 3.921875 0 L 3.921875 -34.765625 L 24.453125 -34.765625 L 24.453125 -31.625 L 7.546875 -31.625 L 7.546875 -19.515625 L 23 -19.515625 L 23 -16.359375 L 7.546875 -16.359375 L 7.546875 -3.140625 Z M 24.796875 -3.140625 "/></g></g></g></g></g><g transform="matrix(1, 0, 0, 1, 271, 63)"><g clip-path="url(#e378341b9f)"><g fill="#ffffff" fill-opacity="1"><g transform="translate(1.106061, 233.338531)"><g><path d="M 46.265625 0 L 14.265625 0 L 14.265625 -165.234375 L 46.265625 -165.234375 L 46.265625 -70.890625 L 91.140625 -122.890625 L 127.953125 -122.890625 L 77.09375 -63.984375 L 133.9375 0 L 93.203125 0 L 46.265625 -57.078125 Z M 46.265625 0 "/></g></g></g><g fill="#ffffff" fill-opacity="1"><g transform="translate(135.504245, 233.338531)"><g><path d="M 46.484375 0 L 14.265625 0 L 14.265625 -165.234375 L 46.484375 -165.234375 Z M 46.484375 0 "/></g></g></g><g fill="#ffffff" fill-opacity="1"><g transform="translate(196.489746, 233.338531)"><g><path d="M 51.328125 -151.4375 C 51.328125 -146.0625 49.332031 -141.570312 45.34375 -137.96875 C 41.351562 -134.363281 36.210938 -132.5625 29.921875 -132.5625 C 23.785156 -132.5625 18.722656 -134.363281 14.734375 -137.96875 C 10.742188 -141.570312 8.75 -146.0625 8.75 -151.4375 C 8.75 -157.113281 10.742188 -161.753906 14.734375 -165.359375 C 18.722656 -168.960938 23.785156 -170.765625 29.921875 -170.765625 C 36.210938 -170.765625 41.351562 -168.960938 45.34375 -165.359375 C 49.332031 -161.753906 51.328125 -157.113281 51.328125 -151.4375 Z M 46.265625 0 L 14.265625 0 L 14.265625 -122.890625 L 46.265625 -122.890625 Z M 46.265625 0 "/></g></g></g><g fill="#ffffff" fill-opacity="1"><g transform="translate(257.01496, 233.338531)"><g><path d="M 46.265625 -66.96875 L 46.265625 0 L 14.265625 0 L 14.265625 -122.890625 L 43.734375 -122.890625 L 43.734375 -105.40625 C 48.179688 -111.539062 53.585938 -116.375 59.953125 -119.90625 C 66.316406 -123.4375 73.488281 -125.203125 81.46875 -125.203125 C 93.738281 -125.203125 103.75 -121.285156 111.5 -113.453125 C 119.25 -105.628906 123.125 -94.28125 123.125 -79.40625 L 123.125 0 L 91.359375 0 L 91.359375 -68.578125 C 91.359375 -77.628906 89.554688 -84.609375 85.953125 -89.515625 C 82.347656 -94.429688 76.941406 -96.890625 69.734375 -96.890625 C 63.441406 -96.890625 57.957031 -94.394531 53.28125 -89.40625 C 48.601562 -84.425781 46.265625 -76.945312 46.265625 -66.96875 Z M 46.265625 -66.96875 "/></g></g></g><g fill="#ffffff" fill-opacity="1"><g transform="translate(393.484365, 233.338531)"><g><path d="M 68.578125 2.296875 C 56.765625 2.296875 46.140625 -0.539062 36.703125 -6.21875 C 27.265625 -11.894531 19.820312 -19.566406 14.375 -29.234375 C 8.9375 -38.898438 6.21875 -49.640625 6.21875 -61.453125 C 6.21875 -73.421875 8.9375 -84.234375 14.375 -93.890625 C 19.820312 -103.554688 27.265625 -111.191406 36.703125 -116.796875 C 46.140625 -122.398438 56.765625 -125.203125 68.578125 -125.203125 C 80.546875 -125.203125 91.207031 -122.398438 100.5625 -116.796875 C 109.925781 -111.191406 117.332031 -103.554688 122.78125 -93.890625 C 128.226562 -84.234375 130.953125 -73.421875 130.953125 -61.453125 C 130.953125 -49.640625 128.226562 -38.898438 122.78125 -29.234375 C 117.332031 -19.566406 109.925781 -11.894531 100.5625 -6.21875 C 91.207031 -0.539062 80.546875 2.296875 68.578125 2.296875 Z M 68.578125 -26 C 76.554688 -26 83.460938 -29.066406 89.296875 -35.203125 C 95.128906 -41.347656 98.046875 -50.097656 98.046875 -61.453125 C 98.046875 -72.804688 95.128906 -81.507812 89.296875 -87.5625 C 83.460938 -93.625 76.554688 -96.65625 68.578125 -96.65625 C 60.597656 -96.65625 53.691406 -93.625 47.859375 -87.5625 C 42.035156 -81.507812 39.125 -72.804688 39.125 -61.453125 C 39.125 -50.097656 42.035156 -41.347656 47.859375 -35.203125 C 53.691406 -29.066406 60.597656 -26 68.578125 -26 Z M 68.578125 -26 "/></g></g></g><g fill="#9cabc8" fill-opacity="1"><g transform="translate(530.652921, 233.338531)"><g><path d="M 110.921875 -121.28125 L 64.203125 0 L 47.40625 0 L 1.15625 -121.28125 L 18.40625 -121.28125 L 56.390625 -18.875 L 94.359375 -121.28125 Z M 110.921875 -121.28125 "/></g></g></g><g fill="#9cabc8" fill-opacity="1"><g transform="translate(642.728157, 233.338531)"><g><path d="M 95.046875 -49.015625 L 95.046875 -121.28125 L 110.921875 -121.28125 L 110.921875 0 L 95.96875 0 L 95.96875 -21.859375 C 92.894531 -14.804688 87.90625 -9.015625 81 -4.484375 C 74.101562 0.0351562 66.207031 2.296875 57.3125 2.296875 C 45.03125 2.296875 35.128906 -1.304688 27.609375 -8.515625 C 20.097656 -15.722656 16.34375 -27 16.34375 -42.34375 L 16.34375 -121.28125 L 32.453125 -121.28125 L 32.453125 -45.796875 C 32.453125 -33.523438 35.210938 -24.78125 40.734375 -19.5625 C 46.253906 -14.34375 53.234375 -11.734375 61.671875 -11.734375 C 68.117188 -11.734375 73.875 -13.34375 78.9375 -16.5625 C 84 -19.789062 87.945312 -24.203125 90.78125 -29.796875 C 93.625 -35.398438 95.046875 -41.804688 95.046875 -49.015625 Z M 95.046875 -49.015625 "/></g></g></g><g fill="#9cabc8" fill-opacity="1"><g transform="translate(771.142894, 233.338531)"><g><path d="M 33.59375 0 L 17.484375 0 L 17.484375 -121.28125 L 32.453125 -121.28125 L 32.453125 -98.5 C 36.441406 -106.320312 41.882812 -112.457031 48.78125 -116.90625 C 55.6875 -121.351562 63.4375 -123.578125 72.03125 -123.578125 C 81.539062 -123.578125 89.632812 -121.125 96.3125 -116.21875 C 102.988281 -111.3125 107.550781 -104.410156 110 -95.515625 C 113.84375 -104.097656 119.40625 -110.921875 126.6875 -115.984375 C 133.976562 -121.046875 142.378906 -123.578125 151.890625 -123.578125 C 164.472656 -123.578125 174.40625 -119.625 181.6875 -111.71875 C 188.976562 -103.820312 192.625 -92.816406 192.625 -78.703125 L 192.625 0 L 176.75 0 L 176.75 -73.421875 C 176.75 -84.921875 174.175781 -93.816406 169.03125 -100.109375 C 163.894531 -106.398438 156.414062 -109.546875 146.59375 -109.546875 C 140.457031 -109.546875 134.859375 -107.894531 129.796875 -104.59375 C 124.734375 -101.300781 120.707031 -96.773438 117.71875 -91.015625 C 114.726562 -85.265625 113.234375 -78.628906 113.234375 -71.109375 L 113.234375 0 L 97.125 0 L 97.125 -73.421875 C 97.125 -84.921875 94.550781 -93.816406 89.40625 -100.109375 C 84.269531 -106.398438 76.789062 -109.546875 66.96875 -109.546875 C 60.832031 -109.546875 55.234375 -107.894531 50.171875 -104.59375 C 45.109375 -101.300781 41.078125 -96.773438 38.078125 -91.015625 C 35.085938 -85.265625 33.59375 -78.628906 33.59375 -71.109375 Z M 33.59375 0 "/></g></g></g></g></g></svg>