<svg xmlns="http://www.w3.org/2000/svg" xmlns:xlink="http://www.w3.org/1999/xlink" width="1800" zoomAndPan="magnify" viewBox="0 0 1350 495.12" height="650" preserveAspectRatio="xMidYMid meet" version="1.0"><defs><g/><clipPath id="a5b5a5aef1"><rect x="0" width="976" y="0" height="62"/></clipPath><clipPath id="def863f6ad"><rect x="0" width="993" y="0" height="293"/></clipPath></defs><path fill="#4a8fd4" d="M 78.8125 137.152344 L 104.550781 137.152344 C 105.183594 137.152344 105.808594 137.214844 106.433594 137.339844 C 107.054688 137.464844 107.65625 137.644531 108.242188 137.886719 C 108.828125 138.132812 109.382812 138.429688 109.910156 138.78125 C 110.4375 139.132812 110.925781 139.53125 111.375 139.980469 C 111.820312 140.429688 112.222656 140.917969 112.574219 141.441406 C 112.925781 141.96875 113.222656 142.527344 113.464844 143.113281 C 113.707031 143.695312 113.890625 144.300781 114.015625 144.921875 C 114.136719 145.542969 114.199219 146.171875 114.199219 146.804688 L 114.199219 172.539062 C 114.199219 173.175781 114.136719 173.800781 114.015625 174.421875 C 113.890625 175.042969 113.707031 175.648438 113.464844 176.234375 C 113.222656 176.820312 112.925781 177.375 112.574219 177.902344 C 112.222656 178.429688 111.820312 178.917969 111.375 179.363281 C 110.925781 179.8125 110.4375 180.210938 109.910156 180.566406 C 109.382812 180.917969 108.828125 181.214844 108.242188 181.457031 C 107.65625 181.699219 107.054688 181.882812 106.433594 182.003906 C 105.808594 182.128906 105.183594 182.191406 104.550781 182.191406 L 78.8125 182.191406 C 78.179688 182.191406 77.550781 182.128906 76.929688 182.003906 C 76.308594 181.882812 75.707031 181.699219 75.121094 181.457031 C 74.535156 181.214844 73.980469 180.917969 73.453125 180.566406 C 72.925781 180.210938 72.4375 179.8125 71.988281 179.363281 C 71.542969 178.917969 71.140625 178.429688 70.789062 177.902344 C 70.4375 177.375 70.140625 176.820312 69.898438 176.234375 C 69.65625 175.648438 69.472656 175.042969 69.347656 174.421875 C 69.222656 173.800781 69.164062 173.175781 69.164062 172.539062 L 69.164062 146.804688 C 69.164062 146.171875 69.222656 145.542969 69.347656 144.921875 C 69.472656 144.300781 69.65625 143.695312 69.898438 143.113281 C 70.140625 142.527344 70.4375 141.96875 70.789062 141.441406 C 71.140625 140.917969 71.542969 140.429688 71.988281 139.980469 C 72.4375 139.53125 72.925781 139.132812 73.453125 138.78125 C 73.980469 138.429688 74.535156 138.132812 75.121094 137.886719 C 75.707031 137.644531 76.308594 137.464844 76.929688 137.339844 C 77.550781 137.214844 78.179688 137.152344 78.8125 137.152344 Z M 78.8125 137.152344 " fill-opacity="0.25" fill-rule="nonzero"/><path fill="#4a8fd4" d="M 139.933594 137.152344 L 165.671875 137.152344 C 166.304688 137.152344 166.933594 137.214844 167.554688 137.339844 C 168.175781 137.464844 168.777344 137.644531 169.363281 137.886719 C 169.949219 138.132812 170.503906 138.429688 171.03125 138.78125 C 171.558594 139.132812 172.046875 139.53125 172.496094 139.980469 C 172.941406 140.429688 173.34375 140.917969 173.695312 141.441406 C 174.046875 141.96875 174.34375 142.527344 174.585938 143.113281 C 174.828125 143.695312 175.011719 144.300781 175.136719 144.921875 C 175.261719 145.542969 175.320312 146.171875 175.320312 146.804688 L 175.320312 172.539062 C 175.320312 173.175781 175.261719 173.800781 175.136719 174.421875 C 175.011719 175.042969 174.828125 175.648438 174.585938 176.234375 C 174.34375 176.820312 174.046875 177.375 173.695312 177.902344 C 173.34375 178.429688 172.941406 178.917969 172.496094 179.363281 C 172.046875 179.8125 171.558594 180.210938 171.03125 180.566406 C 170.503906 180.917969 169.949219 181.214844 169.363281 181.457031 C 168.777344 181.699219 168.175781 181.882812 167.554688 182.003906 C 166.933594 182.128906 166.304688 182.191406 165.671875 182.191406 L 139.933594 182.191406 C 139.300781 182.191406 138.675781 182.128906 138.050781 182.003906 C 137.429688 181.882812 136.828125 181.699219 136.242188 181.457031 C 135.65625 181.214844 135.101562 180.917969 134.574219 180.566406 C 134.046875 180.210938 133.558594 179.8125 133.109375 179.363281 C 132.664062 178.917969 132.261719 178.429688 131.910156 177.902344 C 131.558594 177.375 131.261719 176.820312 131.019531 176.234375 C 130.777344 175.648438 130.59375 175.042969 130.46875 174.421875 C 130.347656 173.800781 130.285156 173.175781 130.285156 172.539062 L 130.285156 146.804688 C 130.285156 146.171875 130.347656 145.542969 130.46875 144.921875 C 130.59375 144.300781 130.777344 143.695312 131.019531 143.113281 C 131.261719 142.527344 131.558594 141.96875 131.910156 141.441406 C 132.261719 140.917969 132.664062 140.429688 133.109375 139.980469 C 133.558594 139.53125 134.046875 139.132812 134.574219 138.78125 C 135.101562 138.429688 135.65625 138.132812 136.242188 137.886719 C 136.828125 137.644531 137.429688 137.464844 138.050781 137.339844 C 138.675781 137.214844 139.300781 137.152344 139.933594 137.152344 Z M 139.933594 137.152344 " fill-opacity="0.5" fill-rule="nonzero"/><path fill="#1a4c8a" d="M 201.058594 137.152344 L 226.792969 137.152344 C 227.425781 137.152344 228.054688 137.214844 228.675781 137.339844 C 229.296875 137.464844 229.902344 137.644531 230.484375 137.886719 C 231.070312 138.132812 231.628906 138.429688 232.15625 138.78125 C 232.679688 139.132812 233.167969 139.53125 233.617188 139.980469 C 234.066406 140.429688 234.464844 140.917969 234.816406 141.441406 C 235.167969 141.96875 235.464844 142.527344 235.707031 143.113281 C 235.953125 143.695312 236.132812 144.300781 236.257812 144.921875 C 236.382812 145.542969 236.445312 146.171875 236.445312 146.804688 L 236.445312 172.539062 C 236.445312 173.175781 236.382812 173.800781 236.257812 174.421875 C 236.132812 175.042969 235.953125 175.648438 235.707031 176.234375 C 235.464844 176.820312 235.167969 177.375 234.816406 177.902344 C 234.464844 178.429688 234.066406 178.917969 233.617188 179.363281 C 233.167969 179.8125 232.679688 180.210938 232.15625 180.566406 C 231.628906 180.917969 231.070312 181.214844 230.484375 181.457031 C 229.902344 181.699219 229.296875 181.882812 228.675781 182.003906 C 228.054688 182.128906 227.425781 182.191406 226.792969 182.191406 L 201.058594 182.191406 C 200.421875 182.191406 199.796875 182.128906 199.175781 182.003906 C 198.554688 181.882812 197.949219 181.699219 197.363281 181.457031 C 196.777344 181.214844 196.222656 180.917969 195.695312 180.566406 C 195.167969 180.210938 194.679688 179.8125 194.234375 179.363281 C 193.785156 178.917969 193.386719 178.429688 193.03125 177.902344 C 192.679688 177.375 192.382812 176.820312 192.140625 176.234375 C 191.898438 175.648438 191.714844 175.042969 191.59375 174.421875 C 191.46875 173.800781 191.40625 173.175781 191.40625 172.539062 L 191.40625 146.804688 C 191.40625 146.171875 191.46875 145.542969 191.59375 144.921875 C 191.714844 144.300781 191.898438 143.695312 192.140625 143.113281 C 192.382812 142.527344 192.679688 141.96875 193.03125 141.441406 C 193.386719 140.917969 193.785156 140.429688 194.234375 139.980469 C 194.679688 139.53125 195.167969 139.132812 195.695312 138.78125 C 196.222656 138.429688 196.777344 138.132812 197.363281 137.886719 C 197.949219 137.644531 198.554688 137.464844 199.175781 137.339844 C 199.796875 137.214844 200.421875 137.152344 201.058594 137.152344 Z M 201.058594 137.152344 " fill-opacity="0.15" fill-rule="nonzero"/><path fill="#4a8fd4" d="M 78.8125 198.277344 L 104.550781 198.277344 C 105.183594 198.277344 105.808594 198.335938 106.433594 198.460938 C 107.054688 198.585938 107.65625 198.769531 108.242188 199.011719 C 108.828125 199.253906 109.382812 199.550781 109.910156 199.902344 C 110.4375 200.253906 110.925781 200.652344 111.375 201.101562 C 111.820312 201.550781 112.222656 202.039062 112.574219 202.566406 C 112.925781 203.089844 113.222656 203.648438 113.464844 204.234375 C 113.707031 204.820312 113.890625 205.421875 114.015625 206.042969 C 114.136719 206.664062 114.199219 207.292969 114.199219 207.925781 L 114.199219 233.660156 C 114.199219 234.296875 114.136719 234.921875 114.015625 235.542969 C 113.890625 236.167969 113.707031 236.769531 113.464844 237.355469 C 113.222656 237.941406 112.925781 238.496094 112.574219 239.023438 C 112.222656 239.550781 111.820312 240.039062 111.375 240.484375 C 110.925781 240.933594 110.4375 241.335938 109.910156 241.6875 C 109.382812 242.039062 108.828125 242.335938 108.242188 242.578125 C 107.65625 242.820312 107.054688 243.003906 106.433594 243.128906 C 105.808594 243.25 105.183594 243.3125 104.550781 243.3125 L 78.8125 243.3125 C 78.179688 243.3125 77.550781 243.25 76.929688 243.128906 C 76.308594 243.003906 75.707031 242.820312 75.121094 242.578125 C 74.535156 242.335938 73.980469 242.039062 73.453125 241.6875 C 72.925781 241.335938 72.4375 240.933594 71.988281 240.484375 C 71.542969 240.039062 71.140625 239.550781 70.789062 239.023438 C 70.4375 238.496094 70.140625 237.941406 69.898438 237.355469 C 69.65625 236.769531 69.472656 236.167969 69.347656 235.542969 C 69.222656 234.921875 69.164062 234.296875 69.164062 233.660156 L 69.164062 207.925781 C 69.164062 207.292969 69.222656 206.664062 69.347656 206.042969 C 69.472656 205.421875 69.65625 204.820312 69.898438 204.234375 C 70.140625 203.648438 70.4375 203.089844 70.789062 202.566406 C 71.140625 202.039062 71.542969 201.550781 71.988281 201.101562 C 72.4375 200.652344 72.925781 200.253906 73.453125 199.902344 C 73.980469 199.550781 74.535156 199.253906 75.121094 199.011719 C 75.707031 198.769531 76.308594 198.585938 76.929688 198.460938 C 77.550781 198.335938 78.179688 198.277344 78.8125 198.277344 Z M 78.8125 198.277344 " fill-opacity="0.5" fill-rule="nonzero"/><path fill="#1a4c8a" d="M 139.933594 198.277344 L 165.671875 198.277344 C 166.304688 198.277344 166.933594 198.335938 167.554688 198.460938 C 168.175781 198.585938 168.777344 198.769531 169.363281 199.011719 C 169.949219 199.253906 170.503906 199.550781 171.03125 199.902344 C 171.558594 200.253906 172.046875 200.652344 172.496094 201.101562 C 172.941406 201.550781 173.34375 202.039062 173.695312 202.566406 C 174.046875 203.089844 174.34375 203.648438 174.585938 204.234375 C 174.828125 204.820312 175.011719 205.421875 175.136719 206.042969 C 175.261719 206.664062 175.320312 207.292969 175.320312 207.925781 L 175.320312 233.660156 C 175.320312 234.296875 175.261719 234.921875 175.136719 235.542969 C 175.011719 236.167969 174.828125 236.769531 174.585938 237.355469 C 174.34375 237.941406 174.046875 238.496094 173.695312 239.023438 C 173.34375 239.550781 172.941406 240.039062 172.496094 240.484375 C 172.046875 240.933594 171.558594 241.335938 171.03125 241.6875 C 170.503906 242.039062 169.949219 242.335938 169.363281 242.578125 C 168.777344 242.820312 168.175781 243.003906 167.554688 243.128906 C 166.933594 243.25 166.304688 243.3125 165.671875 243.3125 L 139.933594 243.3125 C 139.300781 243.3125 138.675781 243.25 138.050781 243.128906 C 137.429688 243.003906 136.828125 242.820312 136.242188 242.578125 C 135.65625 242.335938 135.101562 242.039062 134.574219 241.6875 C 134.046875 241.335938 133.558594 240.933594 133.109375 240.484375 C 132.664062 240.039062 132.261719 239.550781 131.910156 239.023438 C 131.558594 238.496094 131.261719 237.941406 131.019531 237.355469 C 130.777344 236.769531 130.59375 236.167969 130.46875 235.542969 C 130.347656 234.921875 130.285156 234.296875 130.285156 233.660156 L 130.285156 207.925781 C 130.285156 207.292969 130.347656 206.664062 130.46875 206.042969 C 130.59375 205.421875 130.777344 204.820312 131.019531 204.234375 C 131.261719 203.648438 131.558594 203.089844 131.910156 202.566406 C 132.261719 202.039062 132.664062 201.550781 133.109375 201.101562 C 133.558594 200.652344 134.046875 200.253906 134.574219 199.902344 C 135.101562 199.550781 135.65625 199.253906 136.242188 199.011719 C 136.828125 198.769531 137.429688 198.585938 138.050781 198.460938 C 138.675781 198.335938 139.300781 198.277344 139.933594 198.277344 Z M 139.933594 198.277344 " fill-opacity="1" fill-rule="nonzero"/><path fill="#4a8fd4" d="M 201.058594 198.277344 L 226.792969 198.277344 C 227.425781 198.277344 228.054688 198.335938 228.675781 198.460938 C 229.296875 198.585938 229.902344 198.769531 230.484375 199.011719 C 231.070312 199.253906 231.628906 199.550781 232.15625 199.902344 C 232.679688 200.253906 233.167969 200.652344 233.617188 201.101562 C 234.066406 201.550781 234.464844 202.039062 234.816406 202.566406 C 235.167969 203.089844 235.464844 203.648438 235.707031 204.234375 C 235.953125 204.820312 236.132812 205.421875 236.257812 206.042969 C 236.382812 206.664062 236.445312 207.292969 236.445312 207.925781 L 236.445312 233.660156 C 236.445312 234.296875 236.382812 234.921875 236.257812 235.542969 C 236.132812 236.167969 235.953125 236.769531 235.707031 237.355469 C 235.464844 237.941406 235.167969 238.496094 234.816406 239.023438 C 234.464844 239.550781 234.066406 240.039062 233.617188 240.484375 C 233.167969 240.933594 232.679688 241.335938 232.15625 241.6875 C 231.628906 242.039062 231.070312 242.335938 230.484375 242.578125 C 229.902344 242.820312 229.296875 243.003906 228.675781 243.128906 C 228.054688 243.25 227.425781 243.3125 226.792969 243.3125 L 201.058594 243.3125 C 200.421875 243.3125 199.796875 243.25 199.175781 243.128906 C 198.554688 243.003906 197.949219 242.820312 197.363281 242.578125 C 196.777344 242.335938 196.222656 242.039062 195.695312 241.6875 C 195.167969 241.335938 194.679688 240.933594 194.234375 240.484375 C 193.785156 240.039062 193.386719 239.550781 193.03125 239.023438 C 192.679688 238.496094 192.382812 237.941406 192.140625 237.355469 C 191.898438 236.769531 191.714844 236.167969 191.59375 235.542969 C 191.46875 234.921875 191.40625 234.296875 191.40625 233.660156 L 191.40625 207.925781 C 191.40625 207.292969 191.46875 206.664062 191.59375 206.042969 C 191.714844 205.421875 191.898438 204.820312 192.140625 204.234375 C 192.382812 203.648438 192.679688 203.089844 193.03125 202.566406 C 193.386719 202.039062 193.785156 201.550781 194.234375 201.101562 C 194.679688 200.652344 195.167969 200.253906 195.695312 199.902344 C 196.222656 199.550781 196.777344 199.253906 197.363281 199.011719 C 197.949219 198.769531 198.554688 198.585938 199.175781 198.460938 C 199.796875 198.335938 200.421875 198.277344 201.058594 198.277344 Z M 201.058594 198.277344 " fill-opacity="0.5" fill-rule="nonzero"/><path fill="#1a4c8a" d="M 78.8125 259.398438 L 104.550781 259.398438 C 105.183594 259.398438 105.808594 259.460938 106.433594 259.582031 C 107.054688 259.707031 107.65625 259.890625 108.242188 260.132812 C 108.828125 260.375 109.382812 260.671875 109.910156 261.023438 C 110.4375 261.375 110.925781 261.777344 111.375 262.222656 C 111.820312 262.671875 112.222656 263.160156 112.574219 263.6875 C 112.925781 264.214844 113.222656 264.769531 113.464844 265.355469 C 113.707031 265.941406 113.890625 266.542969 114.015625 267.164062 C 114.136719 267.785156 114.199219 268.414062 114.199219 269.046875 L 114.199219 294.785156 C 114.199219 295.417969 114.136719 296.046875 114.015625 296.667969 C 113.890625 297.289062 113.707031 297.890625 113.464844 298.476562 C 113.222656 299.0625 112.925781 299.617188 112.574219 300.144531 C 112.222656 300.671875 111.820312 301.160156 111.375 301.609375 C 110.925781 302.054688 110.4375 302.457031 109.910156 302.808594 C 109.382812 303.160156 108.828125 303.457031 108.242188 303.699219 C 107.65625 303.941406 107.054688 304.125 106.433594 304.25 C 105.808594 304.371094 105.183594 304.433594 104.550781 304.433594 L 78.8125 304.433594 C 78.179688 304.433594 77.550781 304.371094 76.929688 304.25 C 76.308594 304.125 75.707031 303.941406 75.121094 303.699219 C 74.535156 303.457031 73.980469 303.160156 73.453125 302.808594 C 72.925781 302.457031 72.4375 302.054688 71.988281 301.609375 C 71.542969 301.160156 71.140625 300.671875 70.789062 300.144531 C 70.4375 299.617188 70.140625 299.0625 69.898438 298.476562 C 69.65625 297.890625 69.472656 297.289062 69.347656 296.667969 C 69.222656 296.046875 69.164062 295.417969 69.164062 294.785156 L 69.164062 269.046875 C 69.164062 268.414062 69.222656 267.785156 69.347656 267.164062 C 69.472656 266.542969 69.65625 265.941406 69.898438 265.355469 C 70.140625 264.769531 70.4375 264.214844 70.789062 263.6875 C 71.140625 263.160156 71.542969 262.671875 71.988281 262.222656 C 72.4375 261.777344 72.925781 261.375 73.453125 261.023438 C 73.980469 260.671875 74.535156 260.375 75.121094 260.132812 C 75.707031 259.890625 76.308594 259.707031 76.929688 259.582031 C 77.550781 259.460938 78.179688 259.398438 78.8125 259.398438 Z M 78.8125 259.398438 " fill-opacity="0.15" fill-rule="nonzero"/><path fill="#4a8fd4" d="M 139.933594 259.398438 L 165.671875 259.398438 C 166.304688 259.398438 166.933594 259.460938 167.554688 259.582031 C 168.175781 259.707031 168.777344 259.890625 169.363281 260.132812 C 169.949219 260.375 170.503906 260.671875 171.03125 261.023438 C 171.558594 261.375 172.046875 261.777344 172.496094 262.222656 C 172.941406 262.671875 173.34375 263.160156 173.695312 263.6875 C 174.046875 264.214844 174.34375 264.769531 174.585938 265.355469 C 174.828125 265.941406 175.011719 266.542969 175.136719 267.164062 C 175.261719 267.785156 175.320312 268.414062 175.320312 269.046875 L 175.320312 294.785156 C 175.320312 295.417969 175.261719 296.046875 175.136719 296.667969 C 175.011719 297.289062 174.828125 297.890625 174.585938 298.476562 C 174.34375 299.0625 174.046875 299.617188 173.695312 300.144531 C 173.34375 300.671875 172.941406 301.160156 172.496094 301.609375 C 172.046875 302.054688 171.558594 302.457031 171.03125 302.808594 C 170.503906 303.160156 169.949219 303.457031 169.363281 303.699219 C 168.777344 303.941406 168.175781 304.125 167.554688 304.25 C 166.933594 304.371094 166.304688 304.433594 165.671875 304.433594 L 139.933594 304.433594 C 139.300781 304.433594 138.675781 304.371094 138.050781 304.25 C 137.429688 304.125 136.828125 303.941406 136.242188 303.699219 C 135.65625 303.457031 135.101562 303.160156 134.574219 302.808594 C 134.046875 302.457031 133.558594 302.054688 133.109375 301.609375 C 132.664062 301.160156 132.261719 300.671875 131.910156 300.144531 C 131.558594 299.617188 131.261719 299.0625 131.019531 298.476562 C 130.777344 297.890625 130.59375 297.289062 130.46875 296.667969 C 130.347656 296.046875 130.285156 295.417969 130.285156 294.785156 L 130.285156 269.046875 C 130.285156 268.414062 130.347656 267.785156 130.46875 267.164062 C 130.59375 266.542969 130.777344 265.941406 131.019531 265.355469 C 131.261719 264.769531 131.558594 264.214844 131.910156 263.6875 C 132.261719 263.160156 132.664062 262.671875 133.109375 262.222656 C 133.558594 261.777344 134.046875 261.375 134.574219 261.023438 C 135.101562 260.671875 135.65625 260.375 136.242188 260.132812 C 136.828125 259.890625 137.429688 259.707031 138.050781 259.582031 C 138.675781 259.460938 139.300781 259.398438 139.933594 259.398438 Z M 139.933594 259.398438 " fill-opacity="0.5" fill-rule="nonzero"/><path fill="#4a8fd4" d="M 201.058594 259.398438 L 226.792969 259.398438 C 227.425781 259.398438 228.054688 259.460938 228.675781 259.582031 C 229.296875 259.707031 229.902344 259.890625 230.484375 260.132812 C 231.070312 260.375 231.628906 260.671875 232.15625 261.023438 C 232.679688 261.375 233.167969 261.777344 233.617188 262.222656 C 234.066406 262.671875 234.464844 263.160156 234.816406 263.6875 C 235.167969 264.214844 235.464844 264.769531 235.707031 265.355469 C 235.953125 265.941406 236.132812 266.542969 236.257812 267.164062 C 236.382812 267.785156 236.445312 268.414062 236.445312 269.046875 L 236.445312 294.785156 C 236.445312 295.417969 236.382812 296.046875 236.257812 296.667969 C 236.132812 297.289062 235.953125 297.890625 235.707031 298.476562 C 235.464844 299.0625 235.167969 299.617188 234.816406 300.144531 C 234.464844 300.671875 234.066406 301.160156 233.617188 301.609375 C 233.167969 302.054688 232.679688 302.457031 232.15625 302.808594 C 231.628906 303.160156 231.070312 303.457031 230.484375 303.699219 C 229.902344 303.941406 229.296875 304.125 228.675781 304.25 C 228.054688 304.371094 227.425781 304.433594 226.792969 304.433594 L 201.058594 304.433594 C 200.421875 304.433594 199.796875 304.371094 199.175781 304.25 C 198.554688 304.125 197.949219 303.941406 197.363281 303.699219 C 196.777344 303.457031 196.222656 303.160156 195.695312 302.808594 C 195.167969 302.457031 194.679688 302.054688 194.234375 301.609375 C 193.785156 301.160156 193.386719 300.671875 193.03125 300.144531 C 192.679688 299.617188 192.382812 299.0625 192.140625 298.476562 C 191.898438 297.890625 191.714844 297.289062 191.59375 296.667969 C 191.46875 296.046875 191.40625 295.417969 191.40625 294.785156 L 191.40625 269.046875 C 191.40625 268.414062 191.46875 267.785156 191.59375 267.164062 C 191.714844 266.542969 191.898438 265.941406 192.140625 265.355469 C 192.382812 264.769531 192.679688 264.214844 193.03125 263.6875 C 193.386719 263.160156 193.785156 262.671875 194.234375 262.222656 C 194.679688 261.777344 195.167969 261.375 195.695312 261.023438 C 196.222656 260.671875 196.777344 260.375 197.363281 260.132812 C 197.949219 259.890625 198.554688 259.707031 199.175781 259.582031 C 199.796875 259.460938 200.421875 259.398438 201.058594 259.398438 Z M 201.058594 259.398438 " fill-opacity="0.25" fill-rule="nonzero"/><g transform="matrix(1, 0, 0, 1, 282, 329)"><g clip-path="url(#a5b5a5aef1)"><g fill="#9cabc8" fill-opacity="1"><g transform="translate(0.506365, 49.20634)"><g><path d="M 25.109375 -3.1875 L 25.109375 0 L 3.96875 0 L 3.96875 -35.203125 L 24.765625 -35.203125 L 24.765625 -32.015625 L 7.65625 -32.015625 L 7.65625 -19.765625 L 23.296875 -19.765625 L 23.296875 -16.578125 L 7.65625 -16.578125 L 7.65625 -3.1875 Z M 25.109375 -3.1875 "/></g></g></g><g fill="#9cabc8" fill-opacity="1"><g transform="translate(28.451518, 49.20634)"><g><path d="M 7.65625 0 L 3.96875 0 L 3.96875 -35.203125 L 7.65625 -35.203125 Z M 7.65625 0 "/></g></g></g><g fill="#9cabc8" fill-opacity="1"><g transform="translate(40.070823, 49.20634)"><g><path d="M 27.953125 0 L 7.40625 -30 L 7.40625 0 L 3.96875 0 L 3.96875 -35.203125 L 8.046875 -35.203125 L 28.390625 -5.59375 L 28.390625 -35.203125 L 31.875 -35.203125 L 31.875 0 Z M 27.953125 0 "/></g></g></g><g fill="#9cabc8" fill-opacity="1"><g transform="translate(75.909249, 49.20634)"><g/></g></g><g fill="#9cabc8" fill-opacity="1"><g transform="translate(86.155801, 49.20634)"><g><path d="M 28.78125 0 L 25.109375 -9.75 L 8.671875 -9.75 L 4.953125 0 L 1.328125 0 L 15 -35.203125 L 19.03125 -35.203125 L 32.65625 0 Z M 16.921875 -31.28125 L 9.8125 -12.75 L 23.921875 -12.75 Z M 16.921875 -31.28125 "/></g></g></g><g fill="#9cabc8" fill-opacity="1"><g transform="translate(120.131226, 49.20634)"><g><path d="M 27.953125 0 L 7.40625 -30 L 7.40625 0 L 3.96875 0 L 3.96875 -35.203125 L 8.046875 -35.203125 L 28.390625 -5.59375 L 28.390625 -35.203125 L 31.875 -35.203125 L 31.875 0 Z M 27.953125 0 "/></g></g></g><g fill="#9cabc8" fill-opacity="1"><g transform="translate(155.969652, 49.20634)"><g><path d="M 19.765625 0.734375 C 17.242188 0.734375 14.90625 0.273438 12.75 -0.640625 C 10.59375 -1.554688 8.703125 -2.828125 7.078125 -4.453125 C 5.460938 -6.085938 4.207031 -8.023438 3.3125 -10.265625 C 2.414062 -12.503906 1.96875 -14.953125 1.96875 -17.609375 C 1.96875 -20.222656 2.398438 -22.640625 3.265625 -24.859375 C 4.128906 -27.078125 5.34375 -29.007812 6.90625 -30.65625 C 8.476562 -32.3125 10.332031 -33.601562 12.46875 -34.53125 C 14.613281 -35.46875 16.960938 -35.9375 19.515625 -35.9375 C 22.585938 -35.9375 25.28125 -35.351562 27.59375 -34.1875 C 29.914062 -33.03125 31.84375 -31.488281 33.375 -29.5625 C 34.914062 -27.632812 36.015625 -25.492188 36.671875 -23.140625 L 32.5 -23.140625 C 32.007812 -24.941406 31.1875 -26.550781 30.03125 -27.96875 C 28.875 -29.394531 27.410156 -30.53125 25.640625 -31.375 C 23.878906 -32.226562 21.804688 -32.65625 19.421875 -32.65625 C 16.734375 -32.65625 14.359375 -32.007812 12.296875 -30.71875 C 10.242188 -29.425781 8.632812 -27.648438 7.46875 -25.390625 C 6.3125 -23.140625 5.734375 -20.523438 5.734375 -17.546875 C 5.734375 -14.671875 6.320312 -12.085938 7.5 -9.796875 C 8.675781 -7.515625 10.328125 -5.71875 12.453125 -4.40625 C 14.578125 -3.101562 17.046875 -2.453125 19.859375 -2.453125 C 23.679688 -2.453125 26.757812 -3.554688 29.09375 -5.765625 C 31.4375 -7.972656 32.835938 -10.921875 33.296875 -14.609375 L 19.46875 -14.609375 L 19.46875 -17.609375 L 37.109375 -17.609375 C 37.078125 -13.878906 36.34375 -10.640625 34.90625 -7.890625 C 33.46875 -5.148438 31.445312 -3.023438 28.84375 -1.515625 C 26.25 -0.015625 23.222656 0.734375 19.765625 0.734375 Z M 19.765625 0.734375 "/></g></g></g><g fill="#9cabc8" fill-opacity="1"><g transform="translate(195.043834, 49.20634)"><g><path d="M 25.109375 -3.1875 L 25.109375 0 L 3.96875 0 L 3.96875 -35.203125 L 24.765625 -35.203125 L 24.765625 -32.015625 L 7.65625 -32.015625 L 7.65625 -19.765625 L 23.296875 -19.765625 L 23.296875 -16.578125 L 7.65625 -16.578125 L 7.65625 -3.1875 Z M 25.109375 -3.1875 "/></g></g></g><g fill="#9cabc8" fill-opacity="1"><g transform="translate(222.988987, 49.20634)"><g><path d="M 27.65625 -9.859375 C 27.65625 -6.710938 26.597656 -4.28125 24.484375 -2.5625 C 22.378906 -0.851562 19.59375 0 16.125 0 L 3.96875 0 L 3.96875 -35.203125 L 15.390625 -35.203125 C 18.796875 -35.203125 21.453125 -34.414062 23.359375 -32.84375 C 25.273438 -31.28125 26.234375 -29.046875 26.234375 -26.140625 C 26.234375 -24.398438 25.71875 -22.828125 24.6875 -21.421875 C 23.65625 -20.015625 22.242188 -18.988281 20.453125 -18.34375 C 22.835938 -17.75 24.632812 -16.71875 25.84375 -15.25 C 27.050781 -13.78125 27.65625 -11.984375 27.65625 -9.859375 Z M 15.203125 -32.21875 L 7.40625 -32.21875 L 7.40625 -19.65625 L 15.203125 -19.65625 C 17.585938 -19.65625 19.425781 -20.210938 20.71875 -21.328125 C 22.007812 -22.441406 22.65625 -23.976562 22.65625 -25.9375 C 22.65625 -27.894531 22.007812 -29.429688 20.71875 -30.546875 C 19.425781 -31.660156 17.585938 -32.21875 15.203125 -32.21875 Z M 15.9375 -16.671875 L 7.40625 -16.671875 L 7.40625 -2.984375 L 15.9375 -2.984375 C 18.519531 -2.984375 20.53125 -3.597656 21.96875 -4.828125 C 23.40625 -6.054688 24.125 -7.765625 24.125 -9.953125 C 24.125 -12.078125 23.40625 -13.726562 21.96875 -14.90625 C 20.53125 -16.082031 18.519531 -16.671875 15.9375 -16.671875 Z M 15.9375 -16.671875 "/></g></g></g><g fill="#9cabc8" fill-opacity="1"><g transform="translate(252.74813, 49.20634)"><g><path d="M 19.703125 0.734375 C 17.160156 0.734375 14.804688 0.257812 12.640625 -0.6875 C 10.484375 -1.632812 8.601562 -2.941406 7 -4.609375 C 5.40625 -6.273438 4.164062 -8.226562 3.28125 -10.46875 C 2.40625 -12.707031 1.96875 -15.101562 1.96875 -17.65625 C 1.96875 -20.195312 2.40625 -22.578125 3.28125 -24.796875 C 4.164062 -27.023438 5.40625 -28.972656 7 -30.640625 C 8.601562 -32.304688 10.484375 -33.601562 12.640625 -34.53125 C 14.804688 -35.46875 17.160156 -35.9375 19.703125 -35.9375 C 22.253906 -35.9375 24.609375 -35.46875 26.765625 -34.53125 C 28.921875 -33.601562 30.804688 -32.304688 32.421875 -30.640625 C 34.046875 -28.972656 35.300781 -27.023438 36.1875 -24.796875 C 37.070312 -22.578125 37.515625 -20.195312 37.515625 -17.65625 C 37.515625 -15.101562 37.070312 -12.707031 36.1875 -10.46875 C 35.300781 -8.226562 34.046875 -6.273438 32.421875 -4.609375 C 30.804688 -2.941406 28.921875 -1.632812 26.765625 -0.6875 C 24.609375 0.257812 22.253906 0.734375 19.703125 0.734375 Z M 19.703125 -2.546875 C 22.484375 -2.546875 24.921875 -3.210938 27.015625 -4.546875 C 29.109375 -5.890625 30.742188 -7.707031 31.921875 -10 C 33.097656 -12.289062 33.6875 -14.84375 33.6875 -17.65625 C 33.6875 -20.46875 33.097656 -23.007812 31.921875 -25.28125 C 30.742188 -27.550781 29.109375 -29.347656 27.015625 -30.671875 C 24.921875 -31.992188 22.484375 -32.65625 19.703125 -32.65625 C 16.960938 -32.65625 14.535156 -31.992188 12.421875 -30.671875 C 10.316406 -29.347656 8.675781 -27.550781 7.5 -25.28125 C 6.320312 -23.007812 5.734375 -20.46875 5.734375 -17.65625 C 5.734375 -14.84375 6.320312 -12.289062 7.5 -10 C 8.675781 -7.707031 10.316406 -5.890625 12.421875 -4.546875 C 14.535156 -3.210938 16.960938 -2.546875 19.703125 -2.546875 Z M 19.703125 -2.546875 "/></g></g></g><g fill="#9cabc8" fill-opacity="1"><g transform="translate(290.596651, 49.20634)"><g><path d="M 16.421875 0 L 12.796875 0 L 12.796875 -31.921875 L 0.984375 -31.921875 L 0.984375 -35.203125 L 28.234375 -35.203125 L 28.234375 -31.921875 L 16.421875 -31.921875 Z M 16.421875 0 "/></g></g></g><g fill="#9cabc8" fill-opacity="1"><g transform="translate(319.816504, 49.20634)"><g/></g></g><g fill="#9cabc8" fill-opacity="1"><g transform="translate(330.063043, 49.20634)"><g><path d="M 13.96875 0 L 3.96875 0 L 3.96875 -35.203125 L 13.96875 -35.203125 C 17.726562 -35.203125 20.90625 -34.46875 23.5 -33 C 26.101562 -31.53125 28.082031 -29.476562 29.4375 -26.84375 C 30.800781 -24.207031 31.484375 -21.175781 31.484375 -17.75 C 31.484375 -14.382812 30.785156 -11.359375 29.390625 -8.671875 C 28.003906 -5.992188 26.007812 -3.878906 23.40625 -2.328125 C 20.8125 -0.773438 17.664062 0 13.96875 0 Z M 7.65625 -32.015625 L 7.65625 -3.1875 L 13.875 -3.1875 C 16.851562 -3.1875 19.367188 -3.789062 21.421875 -5 C 23.484375 -6.207031 25.050781 -7.90625 26.125 -10.09375 C 27.207031 -12.289062 27.75 -14.84375 27.75 -17.75 C 27.75 -22.09375 26.5625 -25.554688 24.1875 -28.140625 C 21.820312 -30.722656 18.382812 -32.015625 13.875 -32.015625 Z M 7.65625 -32.015625 "/></g></g></g><g fill="#9cabc8" fill-opacity="1"><g transform="translate(363.499191, 49.20634)"><g><path d="M 25.109375 -3.1875 L 25.109375 0 L 3.96875 0 L 3.96875 -35.203125 L 24.765625 -35.203125 L 24.765625 -32.015625 L 7.65625 -32.015625 L 7.65625 -19.765625 L 23.296875 -19.765625 L 23.296875 -16.578125 L 7.65625 -16.578125 L 7.65625 -3.1875 Z M 25.109375 -3.1875 "/></g></g></g><g fill="#9cabc8" fill-opacity="1"><g transform="translate(391.444331, 49.20634)"><g><path d="M 7.65625 0 L 3.96875 0 L 3.96875 -35.203125 L 16.53125 -35.203125 C 20.25 -35.203125 23.195312 -34.273438 25.375 -32.421875 C 27.550781 -30.578125 28.640625 -27.957031 28.640625 -24.5625 C 28.640625 -21.914062 27.828125 -19.664062 26.203125 -17.8125 C 24.585938 -15.96875 22.390625 -14.816406 19.609375 -14.359375 L 29.5625 0 L 25.15625 0 L 15.6875 -13.921875 L 7.65625 -13.921875 Z M 7.65625 -32.109375 L 7.65625 -17.015625 L 16.234375 -17.015625 C 18.941406 -17.015625 21.070312 -17.660156 22.625 -18.953125 C 24.175781 -20.242188 24.953125 -22.113281 24.953125 -24.5625 C 24.953125 -27.007812 24.175781 -28.878906 22.625 -30.171875 C 21.070312 -31.460938 18.941406 -32.109375 16.234375 -32.109375 Z M 7.65625 -32.109375 "/></g></g></g><g fill="#9cabc8" fill-opacity="1"><g transform="translate(422.674265, 49.20634)"><g/></g></g><g fill="#9cabc8" fill-opacity="1"><g transform="translate(432.920804, 49.20634)"><g><path d="M 7.65625 0 L 3.96875 0 L 3.96875 -35.203125 L 24.171875 -35.203125 L 24.171875 -32.015625 L 7.65625 -32.015625 L 7.65625 -18.28125 L 21.875 -18.28125 L 21.875 -15.109375 L 7.65625 -15.109375 Z M 7.65625 0 "/></g></g></g><g fill="#9cabc8" fill-opacity="1"><g transform="translate(458.561732, 49.20634)"><g><path d="M 7.65625 0 L 3.96875 0 L 3.96875 -35.203125 L 16.53125 -35.203125 C 20.25 -35.203125 23.195312 -34.273438 25.375 -32.421875 C 27.550781 -30.578125 28.640625 -27.957031 28.640625 -24.5625 C 28.640625 -21.914062 27.828125 -19.664062 26.203125 -17.8125 C 24.585938 -15.96875 22.390625 -14.816406 19.609375 -14.359375 L 29.5625 0 L 25.15625 0 L 15.6875 -13.921875 L 7.65625 -13.921875 Z M 7.65625 -32.109375 L 7.65625 -17.015625 L 16.234375 -17.015625 C 18.941406 -17.015625 21.070312 -17.660156 22.625 -18.953125 C 24.175781 -20.242188 24.953125 -22.113281 24.953125 -24.5625 C 24.953125 -27.007812 24.175781 -28.878906 22.625 -30.171875 C 21.070312 -31.460938 18.941406 -32.109375 16.234375 -32.109375 Z M 7.65625 -32.109375 "/></g></g></g><g fill="#9cabc8" fill-opacity="1"><g transform="translate(489.791666, 49.20634)"><g><path d="M 25.109375 -3.1875 L 25.109375 0 L 3.96875 0 L 3.96875 -35.203125 L 24.765625 -35.203125 L 24.765625 -32.015625 L 7.65625 -32.015625 L 7.65625 -19.765625 L 23.296875 -19.765625 L 23.296875 -16.578125 L 7.65625 -16.578125 L 7.65625 -3.1875 Z M 25.109375 -3.1875 "/></g></g></g><g fill="#9cabc8" fill-opacity="1"><g transform="translate(517.736806, 49.20634)"><g><path d="M 7.65625 0 L 3.96875 0 L 3.96875 -35.203125 L 7.65625 -35.203125 Z M 7.65625 0 "/></g></g></g><g fill="#9cabc8" fill-opacity="1"><g transform="translate(529.356084, 49.20634)"><g><path d="M 27.65625 -9.859375 C 27.65625 -6.710938 26.597656 -4.28125 24.484375 -2.5625 C 22.378906 -0.851562 19.59375 0 16.125 0 L 3.96875 0 L 3.96875 -35.203125 L 15.390625 -35.203125 C 18.796875 -35.203125 21.453125 -34.414062 23.359375 -32.84375 C 25.273438 -31.28125 26.234375 -29.046875 26.234375 -26.140625 C 26.234375 -24.398438 25.71875 -22.828125 24.6875 -21.421875 C 23.65625 -20.015625 22.242188 -18.988281 20.453125 -18.34375 C 22.835938 -17.75 24.632812 -16.71875 25.84375 -15.25 C 27.050781 -13.78125 27.65625 -11.984375 27.65625 -9.859375 Z M 15.203125 -32.21875 L 7.40625 -32.21875 L 7.40625 -19.65625 L 15.203125 -19.65625 C 17.585938 -19.65625 19.425781 -20.210938 20.71875 -21.328125 C 22.007812 -22.441406 22.65625 -23.976562 22.65625 -25.9375 C 22.65625 -27.894531 22.007812 -29.429688 20.71875 -30.546875 C 19.425781 -31.660156 17.585938 -32.21875 15.203125 -32.21875 Z M 15.9375 -16.671875 L 7.40625 -16.671875 L 7.40625 -2.984375 L 15.9375 -2.984375 C 18.519531 -2.984375 20.53125 -3.597656 21.96875 -4.828125 C 23.40625 -6.054688 24.125 -7.765625 24.125 -9.953125 C 24.125 -12.078125 23.40625 -13.726562 21.96875 -14.90625 C 20.53125 -16.082031 18.519531 -16.671875 15.9375 -16.671875 Z M 15.9375 -16.671875 "/></g></g></g><g fill="#9cabc8" fill-opacity="1"><g transform="translate(558.870121, 49.20634)"><g><path d="M 29.609375 -35.203125 L 29.609375 -12.0625 C 29.609375 -9.445312 29.078125 -7.175781 28.015625 -5.25 C 26.953125 -3.320312 25.457031 -1.84375 23.53125 -0.8125 C 21.601562 0.21875 19.347656 0.734375 16.765625 0.734375 C 14.179688 0.734375 11.914062 0.21875 9.96875 -0.8125 C 8.03125 -1.84375 6.53125 -3.320312 5.46875 -5.25 C 4.40625 -7.175781 3.875 -9.445312 3.875 -12.0625 L 3.875 -35.203125 L 7.546875 -35.203125 L 7.546875 -11.859375 C 7.546875 -8.984375 8.40625 -6.710938 10.125 -5.046875 C 11.84375 -3.378906 14.054688 -2.546875 16.765625 -2.546875 C 19.484375 -2.546875 21.691406 -3.378906 23.390625 -5.046875 C 25.085938 -6.710938 25.9375 -8.984375 25.9375 -11.859375 L 25.9375 -35.203125 Z M 29.609375 -35.203125 "/></g></g></g><g fill="#9cabc8" fill-opacity="1"><g transform="translate(592.355269, 49.20634)"><g><path d="M 7.65625 0 L 3.96875 0 L 3.96875 -35.203125 L 16.53125 -35.203125 C 20.25 -35.203125 23.195312 -34.273438 25.375 -32.421875 C 27.550781 -30.578125 28.640625 -27.957031 28.640625 -24.5625 C 28.640625 -21.914062 27.828125 -19.664062 26.203125 -17.8125 C 24.585938 -15.96875 22.390625 -14.816406 19.609375 -14.359375 L 29.5625 0 L 25.15625 0 L 15.6875 -13.921875 L 7.65625 -13.921875 Z M 7.65625 -32.109375 L 7.65625 -17.015625 L 16.234375 -17.015625 C 18.941406 -17.015625 21.070312 -17.660156 22.625 -18.953125 C 24.175781 -20.242188 24.953125 -22.113281 24.953125 -24.5625 C 24.953125 -27.007812 24.175781 -28.878906 22.625 -30.171875 C 21.070312 -31.460938 18.941406 -32.109375 16.234375 -32.109375 Z M 7.65625 -32.109375 "/></g></g></g><g fill="#9cabc8" fill-opacity="1"><g transform="translate(623.045939, 49.20634)"><g><path d="M 19.765625 0.734375 C 17.242188 0.734375 14.90625 0.273438 12.75 -0.640625 C 10.59375 -1.554688 8.703125 -2.828125 7.078125 -4.453125 C 5.460938 -6.085938 4.207031 -8.023438 3.3125 -10.265625 C 2.414062 -12.503906 1.96875 -14.953125 1.96875 -17.609375 C 1.96875 -20.222656 2.398438 -22.640625 3.265625 -24.859375 C 4.128906 -27.078125 5.34375 -29.007812 6.90625 -30.65625 C 8.476562 -32.3125 10.332031 -33.601562 12.46875 -34.53125 C 14.613281 -35.46875 16.960938 -35.9375 19.515625 -35.9375 C 22.585938 -35.9375 25.28125 -35.351562 27.59375 -34.1875 C 29.914062 -33.03125 31.84375 -31.488281 33.375 -29.5625 C 34.914062 -27.632812 36.015625 -25.492188 36.671875 -23.140625 L 32.5 -23.140625 C 32.007812 -24.941406 31.1875 -26.550781 30.03125 -27.96875 C 28.875 -29.394531 27.410156 -30.53125 25.640625 -31.375 C 23.878906 -32.226562 21.804688 -32.65625 19.421875 -32.65625 C 16.734375 -32.65625 14.359375 -32.007812 12.296875 -30.71875 C 10.242188 -29.425781 8.632812 -27.648438 7.46875 -25.390625 C 6.3125 -23.140625 5.734375 -20.523438 5.734375 -17.546875 C 5.734375 -14.671875 6.320312 -12.085938 7.5 -9.796875 C 8.675781 -7.515625 10.328125 -5.71875 12.453125 -4.40625 C 14.578125 -3.101562 17.046875 -2.453125 19.859375 -2.453125 C 23.679688 -2.453125 26.757812 -3.554688 29.09375 -5.765625 C 31.4375 -7.972656 32.835938 -10.921875 33.296875 -14.609375 L 19.46875 -14.609375 L 19.46875 -17.609375 L 37.109375 -17.609375 C 37.078125 -13.878906 36.34375 -10.640625 34.90625 -7.890625 C 33.46875 -5.148438 31.445312 -3.023438 28.84375 -1.515625 C 26.25 -0.015625 23.222656 0.734375 19.765625 0.734375 Z M 19.765625 0.734375 "/></g></g></g><g fill="#9cabc8" fill-opacity="1"><g transform="translate(662.120093, 49.20634)"><g><path d="M 25.109375 -3.1875 L 25.109375 0 L 3.96875 0 L 3.96875 -35.203125 L 24.765625 -35.203125 L 24.765625 -32.015625 L 7.65625 -32.015625 L 7.65625 -19.765625 L 23.296875 -19.765625 L 23.296875 -16.578125 L 7.65625 -16.578125 L 7.65625 -3.1875 Z M 25.109375 -3.1875 "/></g></g></g><g fill="#9cabc8" fill-opacity="1"><g transform="translate(690.065234, 49.20634)"><g><path d="M 7.65625 0 L 3.96875 0 L 3.96875 -35.203125 L 16.53125 -35.203125 C 20.25 -35.203125 23.195312 -34.273438 25.375 -32.421875 C 27.550781 -30.578125 28.640625 -27.957031 28.640625 -24.5625 C 28.640625 -21.914062 27.828125 -19.664062 26.203125 -17.8125 C 24.585938 -15.96875 22.390625 -14.816406 19.609375 -14.359375 L 29.5625 0 L 25.15625 0 L 15.6875 -13.921875 L 7.65625 -13.921875 Z M 7.65625 -32.109375 L 7.65625 -17.015625 L 16.234375 -17.015625 C 18.941406 -17.015625 21.070312 -17.660156 22.625 -18.953125 C 24.175781 -20.242188 24.953125 -22.113281 24.953125 -24.5625 C 24.953125 -27.007812 24.175781 -28.878906 22.625 -30.171875 C 21.070312 -31.460938 18.941406 -32.109375 16.234375 -32.109375 Z M 7.65625 -32.109375 "/></g></g></g><g fill="#9cabc8" fill-opacity="1"><g transform="translate(721.295168, 49.20634)"><g/></g></g><g fill="#9cabc8" fill-opacity="1"><g transform="translate(731.54176, 49.20634)"><g><path d="M 28.78125 0 L 25.109375 -9.75 L 8.671875 -9.75 L 4.953125 0 L 1.328125 0 L 15 -35.203125 L 19.03125 -35.203125 L 32.65625 0 Z M 16.921875 -31.28125 L 9.8125 -12.75 L 23.921875 -12.75 Z M 16.921875 -31.28125 "/></g></g></g><g fill="#9cabc8" fill-opacity="1"><g transform="translate(765.517171, 49.20634)"><g><path d="M 7.65625 0 L 3.96875 0 L 3.96875 -35.203125 L 7.65625 -35.203125 L 7.65625 -18.234375 L 24.3125 -35.203125 L 28.578125 -35.203125 L 11.421875 -17.65625 L 29.078125 0 L 24.3125 0 L 7.65625 -16.53125 Z M 7.65625 0 "/></g></g></g><g fill="#9cabc8" fill-opacity="1"><g transform="translate(795.717578, 49.20634)"><g><path d="M 28.78125 0 L 25.109375 -9.75 L 8.671875 -9.75 L 4.953125 0 L 1.328125 0 L 15 -35.203125 L 19.03125 -35.203125 L 32.65625 0 Z M 16.921875 -31.28125 L 9.8125 -12.75 L 23.921875 -12.75 Z M 16.921875 -31.28125 "/></g></g></g><g fill="#9cabc8" fill-opacity="1"><g transform="translate(829.692989, 49.20634)"><g><path d="M 13.96875 0 L 3.96875 0 L 3.96875 -35.203125 L 13.96875 -35.203125 C 17.726562 -35.203125 20.90625 -34.46875 23.5 -33 C 26.101562 -31.53125 28.082031 -29.476562 29.4375 -26.84375 C 30.800781 -24.207031 31.484375 -21.175781 31.484375 -17.75 C 31.484375 -14.382812 30.785156 -11.359375 29.390625 -8.671875 C 28.003906 -5.992188 26.007812 -3.878906 23.40625 -2.328125 C 20.8125 -0.773438 17.664062 0 13.96875 0 Z M 7.65625 -32.015625 L 7.65625 -3.1875 L 13.875 -3.1875 C 16.851562 -3.1875 19.367188 -3.789062 21.421875 -5 C 23.484375 -6.207031 25.050781 -7.90625 26.125 -10.09375 C 27.207031 -12.289062 27.75 -14.84375 27.75 -17.75 C 27.75 -22.09375 26.5625 -25.554688 24.1875 -28.140625 C 21.820312 -30.722656 18.382812 -32.015625 13.875 -32.015625 Z M 7.65625 -32.015625 "/></g></g></g><g fill="#9cabc8" fill-opacity="1"><g transform="translate(863.129137, 49.20634)"><g><path d="M 25.109375 -3.1875 L 25.109375 0 L 3.96875 0 L 3.96875 -35.203125 L 24.765625 -35.203125 L 24.765625 -32.015625 L 7.65625 -32.015625 L 7.65625 -19.765625 L 23.296875 -19.765625 L 23.296875 -16.578125 L 7.65625 -16.578125 L 7.65625 -3.1875 Z M 25.109375 -3.1875 "/></g></g></g><g fill="#9cabc8" fill-opacity="1"><g transform="translate(891.074277, 49.20634)"><g><path d="M 20.15625 0 L 7.40625 -29.859375 L 7.40625 0 L 3.96875 0 L 3.96875 -35.203125 L 8.734375 -35.203125 L 21.765625 -4.515625 L 34.90625 -35.203125 L 39.625 -35.203125 L 39.625 0 L 36.234375 0 L 36.234375 -29.859375 L 23.390625 0 Z M 20.15625 0 "/></g></g></g><g fill="#9cabc8" fill-opacity="1"><g transform="translate(934.658912, 49.20634)"><g><path d="M 7.65625 0 L 3.96875 0 L 3.96875 -35.203125 L 7.65625 -35.203125 Z M 7.65625 0 "/></g></g></g><g fill="#9cabc8" fill-opacity="1"><g transform="translate(946.278189, 49.20634)"><g><path d="M 25.109375 -3.1875 L 25.109375 0 L 3.96875 0 L 3.96875 -35.203125 L 24.765625 -35.203125 L 24.765625 -32.015625 L 7.65625 -32.015625 L 7.65625 -19.765625 L 23.296875 -19.765625 L 23.296875 -16.578125 L 7.65625 -16.578125 L 7.65625 -3.1875 Z M 25.109375 -3.1875 "/></g></g></g></g></g><g transform="matrix(1, 0, 0, 1, 274, 68)"><g clip-path="url(#def863f6ad)"><g fill="#033d68" fill-opacity="1"><g transform="translate(0.847039, 235.952121)"><g><path d="M 46.828125 0 L 14.4375 0 L 14.4375 -167.265625 L 46.828125 -167.265625 L 46.828125 -71.75 L 92.25 -124.40625 L 129.53125 -124.40625 L 78.046875 -64.765625 L 135.59375 0 L 94.359375 0 L 46.828125 -57.78125 Z M 46.828125 0 "/></g></g></g><g fill="#033d68" fill-opacity="1"><g transform="translate(136.902776, 235.952121)"><g><path d="M 47.0625 0 L 14.4375 0 L 14.4375 -167.265625 L 47.0625 -167.265625 Z M 47.0625 0 "/></g></g></g><g fill="#033d68" fill-opacity="1"><g transform="translate(198.64042, 235.952121)"><g><path d="M 51.953125 -153.296875 C 51.953125 -147.859375 49.929688 -143.3125 45.890625 -139.65625 C 41.859375 -136.007812 36.65625 -134.1875 30.28125 -134.1875 C 24.070312 -134.1875 18.945312 -136.007812 14.90625 -139.65625 C 10.875 -143.3125 8.859375 -147.859375 8.859375 -153.296875 C 8.859375 -159.035156 10.875 -163.726562 14.90625 -167.375 C 18.945312 -171.03125 24.070312 -172.859375 30.28125 -172.859375 C 36.65625 -172.859375 41.859375 -171.03125 45.890625 -167.375 C 49.929688 -163.726562 51.953125 -159.035156 51.953125 -153.296875 Z M 46.828125 0 L 14.4375 0 L 14.4375 -124.40625 L 46.828125 -124.40625 Z M 46.828125 0 "/></g></g></g><g fill="#033d68" fill-opacity="1"><g transform="translate(259.9121, 235.952121)"><g><path d="M 46.828125 -67.796875 L 46.828125 0 L 14.4375 0 L 14.4375 -124.40625 L 44.265625 -124.40625 L 44.265625 -106.703125 C 48.765625 -112.910156 54.238281 -117.800781 60.6875 -121.375 C 67.132812 -124.945312 74.394531 -126.734375 82.46875 -126.734375 C 94.894531 -126.734375 105.03125 -122.769531 112.875 -114.84375 C 120.71875 -106.925781 124.640625 -95.4375 124.640625 -80.375 L 124.640625 0 L 92.484375 0 L 92.484375 -69.421875 C 92.484375 -78.585938 90.660156 -85.65625 87.015625 -90.625 C 83.367188 -95.59375 77.894531 -98.078125 70.59375 -98.078125 C 64.21875 -98.078125 58.660156 -95.550781 53.921875 -90.5 C 49.191406 -85.457031 46.828125 -77.890625 46.828125 -67.796875 Z M 46.828125 -67.796875 "/></g></g></g><g fill="#033d68" fill-opacity="1"><g transform="translate(398.064603, 235.952121)"><g><path d="M 69.421875 2.328125 C 57.460938 2.328125 46.707031 -0.539062 37.15625 -6.28125 C 27.601562 -12.03125 20.070312 -19.796875 14.5625 -29.578125 C 9.050781 -39.367188 6.296875 -50.242188 6.296875 -62.203125 C 6.296875 -74.316406 9.050781 -85.265625 14.5625 -95.046875 C 20.070312 -104.835938 27.601562 -112.566406 37.15625 -118.234375 C 46.707031 -123.898438 57.460938 -126.734375 69.421875 -126.734375 C 81.535156 -126.734375 92.328125 -123.898438 101.796875 -118.234375 C 111.273438 -112.566406 118.769531 -104.835938 124.28125 -95.046875 C 129.800781 -85.265625 132.5625 -74.316406 132.5625 -62.203125 C 132.5625 -50.242188 129.800781 -39.367188 124.28125 -29.578125 C 118.769531 -19.796875 111.273438 -12.03125 101.796875 -6.28125 C 92.328125 -0.539062 81.535156 2.328125 69.421875 2.328125 Z M 69.421875 -26.328125 C 77.503906 -26.328125 84.492188 -29.429688 90.390625 -35.640625 C 96.296875 -41.859375 99.25 -50.710938 99.25 -62.203125 C 99.25 -73.691406 96.296875 -82.503906 90.390625 -88.640625 C 84.492188 -94.773438 77.503906 -97.84375 69.421875 -97.84375 C 61.347656 -97.84375 54.359375 -94.773438 48.453125 -88.640625 C 42.554688 -82.503906 39.609375 -73.691406 39.609375 -62.203125 C 39.609375 -50.710938 42.554688 -41.859375 48.453125 -35.640625 C 54.359375 -29.429688 61.347656 -26.328125 69.421875 -26.328125 Z M 69.421875 -26.328125 "/></g></g></g><g fill="#9cabc8" fill-opacity="1"><g transform="translate(536.924879, 235.952121)"><g><path d="M 112.296875 -122.78125 L 65 0 L 47.984375 0 L 1.171875 -122.78125 L 18.640625 -122.78125 L 57.078125 -19.109375 L 95.515625 -122.78125 Z M 112.296875 -122.78125 "/></g></g></g><g fill="#9cabc8" fill-opacity="1"><g transform="translate(650.382356, 235.952121)"><g><path d="M 96.21875 -49.625 L 96.21875 -122.78125 L 112.296875 -122.78125 L 112.296875 0 L 97.140625 0 L 97.140625 -22.125 C 94.035156 -14.988281 88.988281 -9.128906 82 -4.546875 C 75.007812 0.0351562 67.015625 2.328125 58.015625 2.328125 C 45.585938 2.328125 35.566406 -1.316406 27.953125 -8.609375 C 20.347656 -15.910156 16.546875 -27.328125 16.546875 -42.859375 L 16.546875 -122.78125 L 32.84375 -122.78125 L 32.84375 -46.359375 C 32.84375 -33.929688 35.640625 -25.078125 41.234375 -19.796875 C 46.828125 -14.515625 53.894531 -11.875 62.4375 -11.875 C 68.957031 -11.875 74.78125 -13.503906 79.90625 -16.765625 C 85.03125 -20.035156 89.03125 -24.503906 91.90625 -30.171875 C 94.78125 -35.835938 96.21875 -42.320312 96.21875 -49.625 Z M 96.21875 -49.625 "/></g></g></g><g fill="#9cabc8" fill-opacity="1"><g transform="translate(780.380851, 235.952121)"><g><path d="M 34.015625 0 L 17.703125 0 L 17.703125 -122.78125 L 32.84375 -122.78125 L 32.84375 -99.703125 C 36.882812 -107.628906 42.398438 -113.84375 49.390625 -118.34375 C 56.378906 -122.851562 64.222656 -125.109375 72.921875 -125.109375 C 82.546875 -125.109375 90.734375 -122.617188 97.484375 -117.640625 C 104.242188 -112.671875 108.867188 -105.6875 111.359375 -96.6875 C 115.242188 -105.382812 120.875 -112.296875 128.25 -117.421875 C 135.625 -122.546875 144.128906 -125.109375 153.765625 -125.109375 C 166.492188 -125.109375 176.546875 -121.109375 183.921875 -113.109375 C 191.304688 -105.109375 195 -93.960938 195 -79.671875 L 195 0 L 178.921875 0 L 178.921875 -74.3125 C 178.921875 -85.96875 176.316406 -94.976562 171.109375 -101.34375 C 165.910156 -107.707031 158.34375 -110.890625 148.40625 -110.890625 C 142.1875 -110.890625 136.515625 -109.21875 131.390625 -105.875 C 126.265625 -102.539062 122.1875 -97.960938 119.15625 -92.140625 C 116.132812 -86.316406 114.625 -79.597656 114.625 -71.984375 L 114.625 0 L 98.3125 0 L 98.3125 -74.3125 C 98.3125 -85.96875 95.707031 -94.976562 90.5 -101.34375 C 85.300781 -107.707031 77.734375 -110.890625 67.796875 -110.890625 C 61.578125 -110.890625 55.90625 -109.21875 50.78125 -105.875 C 45.65625 -102.539062 41.578125 -97.960938 38.546875 -92.140625 C 35.523438 -86.316406 34.015625 -79.597656 34.015625 -71.984375 Z M 34.015625 0 "/></g></g></g></g></g></svg>